<?xml version="1.0" encoding="utf-8"?>
<!-- Generator: Adobe Illustrator 22.0.1, SVG Export Plug-In . SVG Version: 6.00 Build 0)  -->
<svg version="1.0" id="Layer_1" xmlns="http://www.w3.org/2000/svg" xmlns:xlink="http://www.w3.org/1999/xlink" x="0px" y="0px"
	 viewBox="0 0 50 50" style="enable-background:new 0 0 50 50;" xml:space="preserve">
<style type="text/css">
	.st0{fill:#7F5528;}
	.st1{fill:#4F351C;}
</style>
<g>
	<g>
		<path class="st0" d="M21.4,21c1-4.5,7,0.5,7.8,2.9c0.6,2-0.4,2.7-1.8,3.5c-2.7,1.5-4.5,0.9-7-0.6c-2.2-1.3-4-2.9-3.7-5.8
			c-0.5,0.7-0.5,0.6,0.1-0.2c0.4-0.6,0.8-1.2,1.3-1.7c0.4-0.5,2.9-2.3,2-2.1c1.9-0.4,4.2,1.4,5.4,2.6c1.5,1.5-0.2,1.9-1.1,1.8
			c1.8,0.7,3.5,1.5,5.3,2.2c-0.7-0.2-1-0.7-1-1.5c0,1.3,0,2.7,0,4c-2,0.3-4.1,0.7-6.1,1c5.4,8,18.4,0.5,13-7.6
			C31,12.9,19.7,11.2,15.2,19c-4.5,7.8,3.1,18.9,11.9,17.2c8.1-1.6,14.3-8.3,13.6-16.7C40,11,33.1,4.7,25.2,2.7
			c-9-2.3-16,2.5-20.9,9.8c-4.4,6.6-2.8,17.6,3,23.1c6.4,6.1,15.3,9.5,23.8,6.4c8.1-2.9,13.2-8.7,13.1-17.6
			c-0.1-8.9-8.1-17.7-16.6-19.8C18.5,2.4,9,7.8,7,17C4.9,26.4,19.4,30.4,21.4,21L21.4,21z"/>
	</g>
</g>
<g>
	<g>
		<path class="st0" d="M29.2,20.3c0.1-0.1,0.2-0.1,0.3-0.2c-0.6,0.3-1.2,0.5-1.8,0.8c0.4-0.1,0.7-0.2,1.1-0.3
			c-0.7,0.1-1.3,0.2-2,0.3c0.4,0,0.7,0,1.1,0c-0.7-0.1-1.3-0.2-2-0.3c1.1,0.2,2.2,0.6,3.2,1c1.7,0.7,4.3,0.1,5.8-0.8
			c1.6-0.9,3-2.7,3.4-4.5c0.4-1.9,0.3-4.1-0.8-5.8c-1.1-1.8-2.6-2.7-4.5-3.4c-1.7-0.7-3.3-1.1-5.2-1.3c-2.3-0.2-4.3,0.5-6.4,1.4
			c-1.6,0.7-3,2.9-3.4,4.5c-0.5,1.8-0.3,4.2,0.8,5.8c1,1.6,2.6,3,4.5,3.4C25.5,21.5,27.3,21.2,29.2,20.3L29.2,20.3z"/>
	</g>
</g>
<g>
	<g>
		<path class="st0" d="M25,15.7c0.5,0.3,1.7,0.7,2,1.2c-0.7-0.6-0.8-0.6-0.1-0.1c0.3,0.3,0.6,0.5,0.8,0.8c0.5,0.6,0.5,0.6-0.1-0.1
			c0.2,0.3,0.4,0.7,0.6,1c-0.4-0.9-0.4-1-0.2-0.2c0.2,0.8,0.2,0.8,0-0.3c0.2,3.9,3.3,7.7,7.5,7.5c3.9-0.2,7.7-3.3,7.5-7.5
			c-0.4-6.8-4.5-12.1-10.4-15.3c-3.5-1.9-8.3-1-10.3,2.7C20.4,8.9,21.3,13.7,25,15.7L25,15.7z"/>
	</g>
</g>
<g>
	<g>
		<path class="st0" d="M4,10.9c-0.3,0.9-0.5,1.8-0.7,2.8c1-0.1,2-0.2,2.9-0.2c0-0.4,0-0.7,0-1.1c-0.1-1.4-2.4-0.9-2.8,0
			c-1,1.9-2,3.9-2,6.1c0,1.5,2.9,1,2.9-0.2c0-1.2,0.2-2.2,0.8-3.3c0.7-1.5-2.2-1.4-2.8-0.3c-0.6,1.2-0.9,2.5-0.9,3.9
			c1-0.1,2-0.2,2.9-0.2c0-2,0.9-3.8,1.9-5.5c-0.9,0-1.9,0-2.8,0c0,0.4,0,0.7,0,1.1c0.1,1.5,2.7,1,2.9-0.2c0.2-0.9,0.4-1.8,0.7-2.8
			C7.3,9.3,4.4,9.7,4,10.9L4,10.9z"/>
	</g>
</g>
<g>
	<g>
		<path class="st0" d="M41.5,12.5c1.7,1.3,2.8,2.9,3.5,4.9c0.3-0.1,0.6-0.2,0.9-0.3c-0.9-1.4-1.9-2.8-3-4c-0.2-0.2-1.1,0-0.9,0.3
			c0.6,1.7,1.3,3.4,2.1,5c0.3-0.1,0.6-0.2,0.9-0.3c-0.8-0.9-1.6-1.8-2.4-2.6c-0.2-0.3-1.1,0-0.9,0.4c0.9,1.6,1.5,3.2,2,5
			c0.3-0.1,0.6-0.2,0.9-0.3c-0.5-0.7-1-1.4-1.6-2.1c-0.2-0.3-1.1,0-0.9,0.4c1.2,1.8,2.1,3.7,2.6,5.8c0.3-0.1,0.6-0.2,0.9-0.3
			c-0.4-0.6-0.8-1.1-1.2-1.7c-0.2-0.3-1.1,0-0.9,0.3c0.6,1.5,0.8,2.9,0.7,4.5c0.3-0.1,0.6-0.1,1-0.2c-0.2-0.6-0.5-1.1-0.7-1.7
			c-0.2-0.4-1-0.1-1,0.3c0.2,2,0.3,4,0.5,6.1c0.3-0.1,0.6-0.2,1-0.3c-0.5-1-0.9-2.1-1.4-3.1c-0.1-0.3-0.9-0.2-1,0.2
			c-0.2,1.9-0.4,3.7-0.6,5.6c0.3-0.1,0.6-0.1,1-0.2c-0.1-0.6-0.3-1.2-0.4-1.8c-0.1-0.4-0.9-0.1-1,0.2c-0.3,1.9-0.8,3.7-1.4,5.4
			c0.3-0.1,0.6-0.1,1-0.2c0-0.6-0.1-1.2-0.1-1.8c0-0.4-0.7-0.1-0.9,0c-0.4,0.4-0.8,0.8-1.1,1.3c0.3,0,0.6,0,0.9,0.1
			c0.1-0.3,0.2-0.5,0.3-0.8c0.1-0.4-0.8-0.2-0.9,0c-0.5,0.7-1.1,1.5-1.6,2.2c0.3,0,0.6,0,0.9,0C39,37,36,37,36.3,38.5
			c0.1,0.6,0.8,1,1.4,0.8c1.3-0.4,1.8-3,2-4.1c0.1-0.5-0.9-0.2-1,0.1c-0.5,1.5-1.2,2.5-2.5,3.4c-0.5,0.4,0.3,0.6,0.6,0.4
			c1.4-1,2.3-2.2,2.8-3.8c-0.3,0-0.6,0.1-1,0.1c-0.2,1.3-0.8,2.4-1.2,3.6c-0.1,0.4,0.8,0.2,0.9,0c0.5-0.7,1.1-1.5,1.6-2.2
			c-0.3,0-0.6,0-0.9,0c-0.1,0.3-0.2,0.5-0.3,0.8c-0.1,0.4,0.7,0.2,0.9,0.1c0.4-0.4,0.8-0.8,1.1-1.3c-0.3,0-0.6,0-0.9,0
			c0,0.6,0.1,1.2,0.1,1.8c0,0.4,0.9,0.1,1-0.2c0.7-1.8,1.1-3.6,1.4-5.4c-0.3,0.1-0.6,0.1-1,0.2c0.1,0.6,0.3,1.2,0.4,1.8
			c0.1,0.4,0.9,0.1,1-0.2c0.2-1.9,0.4-3.7,0.6-5.6c-0.3,0.1-0.6,0.1-1,0.2c0.5,1,0.9,2.1,1.4,3.1c0.2,0.4,1,0.1,1-0.3
			c-0.2-2-0.3-4-0.5-6.1c-0.3,0.1-0.6,0.2-1,0.3c0.2,0.6,0.5,1.1,0.7,1.7c0.1,0.3,0.9,0.2,1-0.2c0.1-1.7-0.1-3.1-0.7-4.7
			c-0.3,0.1-0.6,0.2-0.9,0.3c0.4,0.6,0.8,1.1,1.2,1.7c0.2,0.3,1,0,0.9-0.3c-0.6-2.2-1.5-4.1-2.7-6c-0.3,0.1-0.6,0.3-0.9,0.4
			c0.5,0.7,1,1.4,1.6,2.1c0.2,0.3,1,0,0.9-0.3c-0.4-1.8-1.1-3.5-2-5.1c-0.3,0.1-0.6,0.3-0.9,0.4c0.8,0.9,1.6,1.8,2.4,2.6
			c0.2,0.2,1.1,0,0.9-0.3c-0.8-1.6-1.5-3.3-2.1-5c-0.3,0.1-0.6,0.2-0.9,0.3c1.1,1.3,2.1,2.6,3,4c0.2,0.3,1,0,0.9-0.3
			c-0.7-2.1-1.9-3.8-3.7-5.2C41.9,11.8,41,12.2,41.5,12.5L41.5,12.5z"/>
	</g>
</g>
<g>
	<g>
		<path class="st0" d="M42.5,15.1c-0.3-1.1-0.8-2-1.4-2.9c-0.3,0.1-0.6,0.3-0.9,0.4c1,0.9,2,1.9,1.9,3.3c0.3-0.1,0.6-0.1,1-0.2
			c-0.4-1.4-0.9-2.8-1.7-4c-0.3,0.2-0.5,0.3-0.8,0.5c0.3,0.2,0.5,0.5,0.7,0.8c0.2,0.3,1.1,0,0.9-0.4c-0.2-0.4-0.5-0.7-0.8-1
			c-0.2-0.2-1,0.1-0.8,0.5c0.7,1.2,1.3,2.5,1.6,3.9c0.1,0.4,0.9,0.2,1-0.2c0.2-1.6-0.9-2.6-2-3.6c-0.3-0.2-1.2,0-0.9,0.4
			c0.6,0.8,1.1,1.8,1.4,2.8C41.6,15.7,42.6,15.5,42.5,15.1L42.5,15.1z"/>
	</g>
</g>
<g>
	<g>
		<path class="st0" d="M7.9,8.4c-0.4-0.3-0.7-0.6-1-0.9C6.6,7.6,6.3,7.8,6.1,7.9c0.3,0.2,0.7,0.4,1,0.6c0.2,0.1,1,0,0.9-0.4
			c-0.1-0.3,0.8-1,0.9-1.4c0.1-0.4-0.8-0.2-0.9,0c-0.3,0.5-0.5,1-0.6,1.7C7.1,8.8,8,8.5,8.1,8.4C8.2,8.2,8.3,8.1,8.4,8
			C8.1,8,7.8,8,7.5,8c-0.8,2.1-1.3,4.2-1.6,6.4c0,0.4,0.9,0.2,1-0.1c0.3-2.2,0.8-4.3,1.6-6.4c0.1-0.4-0.8-0.1-0.9,0
			C7.4,8.1,7.3,8.2,7.2,8.3c0.3,0,0.6,0,0.9,0c0.1-0.5,0.3-1,0.6-1.5c-0.3,0-0.6,0-0.9,0C7.6,7.5,6.7,7.5,6.9,8.4
			C7.2,8.2,7.5,8.1,7.8,8c-0.3-0.2-0.7-0.4-1-0.6C6.6,7.3,5.7,7.5,6,7.9c0.3,0.4,0.6,0.6,1,0.9C7.3,9,8.2,8.6,7.9,8.4L7.9,8.4z"/>
	</g>
</g>
<g>
	<g>
		<path class="st0" d="M41.3,35.6c0,0-0.1-0.1-0.1-0.1c-0.2-0.2-1.1,0.2-0.9,0.3c0,0,0.1,0.1,0.1,0.1C40.6,36.1,41.5,35.7,41.3,35.6
			L41.3,35.6z"/>
	</g>
</g>
<g>
	<g>
		<path class="st0" d="M40.6,35.7c0.4,0,1-0.6,0.4-0.6C40.5,35.1,39.9,35.7,40.6,35.7L40.6,35.7z"/>
	</g>
</g>
<g>
	<g>
		<path class="st0" d="M4.4,32.4c0.3,1,0.7,2,1.2,2.9C5.8,35,6,34.8,6.2,34.7c-0.8-0.1-1.2-1.2-1.5-1.9C4.4,32,4,31.2,3.6,30.4
			c-0.2-0.4-1.1-0.1-1,0.3c0.5,1.1,1,2.3,1.5,3.3c0.4,0.7,0.9,1.3,1.7,1.4c0.3,0,0.8-0.2,0.6-0.6c-0.5-0.8-0.9-1.7-1.1-2.7
			C5.2,31.6,4.3,31.9,4.4,32.4L4.4,32.4z"/>
	</g>
</g>
<g>
	<g>
		<path class="st0" d="M4,30.6c-1-2-1.2-4.2-0.5-6.3c0.1-0.2-0.9-0.1-1,0.2C1.8,26.7,2,28.9,3,30.9C3.1,31.1,4.1,30.8,4,30.6L4,30.6
			z"/>
	</g>
</g>
<g>
	<g>
		<path class="st0" d="M7.7,35.1c1.3,1.6,2.6,3.3,3.9,4.9c0.3-0.1,0.6-0.2,0.9-0.4c-2.1-1.8-3.7-4-4.7-6.7c-0.1-0.3-1.1,0-1,0.3
			c1,2.7,2.6,4.9,4.7,6.8c0.2,0.2,1.1-0.1,0.9-0.4c-1.3-1.6-2.6-3.3-3.9-4.9C8.4,34.5,7.5,34.9,7.7,35.1L7.7,35.1z"/>
	</g>
</g>
<g>
	<g>
		<path class="st0" d="M10.5,7.7c2.7-4.5,9.3-6.3,14.2-4.7c0.4,0.1,1.1-0.5,0.6-0.7C19.8,0.5,12.6,2.6,9.6,7.6
			C9.3,8.1,10.3,8.1,10.5,7.7L10.5,7.7z"/>
	</g>
</g>
<g>
	<g>
		<path class="st0" d="M41.4,10.4C39.7,8.2,38,6,36.4,3.7c-0.2-0.2-1.1,0.1-1,0.3c0.9,1.6,2.2,2.7,3.5,4c0.7,0.7,1.4,1.5,1.6,2.5
			c0.2,1.1-0.1,2.2,0.3,3.3c0.1,0.2,1-0.1,1-0.3c-0.6-1.8,0.1-3.4-1.1-5c-1.3-1.7-3.2-2.8-4.2-4.8c-0.3,0.1-0.6,0.2-1,0.3
			c1.6,2.3,3.3,4.5,5.1,6.7C40.6,10.9,41.5,10.5,41.4,10.4L41.4,10.4z"/>
	</g>
</g>
<ellipse transform="matrix(0.4107 -0.9118 0.9118 0.4107 10.6718 39.5501)" class="st1" cx="35.9" cy="11.5" rx="2.5" ry="4.7"/>
<ellipse transform="matrix(0.2278 -0.9737 0.9737 0.2278 10.4664 26.7428)" class="st1" cx="22.1" cy="6.8" rx="2.5" ry="5.2"/>
<ellipse transform="matrix(0.5 -0.866 0.866 0.5 0.4251 29.7058)" class="st1" cx="25.9" cy="14.5" rx="2.8" ry="4.1"/>
</svg>
