<?xml version="1.0" encoding="utf-8"?>
<!-- Generator: Adobe Illustrator 22.0.1, SVG Export Plug-In . SVG Version: 6.00 Build 0)  -->
<svg version="1.0" id="Layer_1" xmlns="http://www.w3.org/2000/svg" xmlns:xlink="http://www.w3.org/1999/xlink" x="0px" y="0px"
	 viewBox="0 0 190 176" style="enable-background:new 0 0 190 176;" xml:space="preserve">
<style type="text/css">
	.st0{fill:#7F5528;}
	.st1{fill:#4F351C;}
</style>
<g>
	<g>
		<path class="st0" d="M93.8,86.2c3.6-16.8,24.9,1.9,27.8,10.8c2.1,7.5-1.4,10.1-6.4,13.1c-9.6,5.6-16,3.4-24.9-2.2
			C82.4,103,76,97,77.1,86.2c-1.8,2.6-1.8,2.2,0.4-0.7c1.4-2.2,2.8-4.5,4.6-6.3c1.4-1.9,10.3-8.6,7.1-7.8c6.8-1.5,14.9,5.2,19.2,9.7
			c5.3,5.6-0.7,7.1-3.9,6.7c6.4,2.6,12.5,5.6,18.9,8.2c-2.5-0.7-3.6-2.6-3.6-5.6c0,4.9,0,10.1,0,14.9c-7.1,1.1-14.6,2.6-21.7,3.7
			c19.2,29.9,65.5,1.9,46.3-28.4C128,56,87.8,49.6,71.8,78.7s11,70.6,42.3,64.2c28.8-6,50.9-31,48.4-62.4
			c-2.5-31.7-27-55.3-55.2-62.7c-32-8.6-56.9,9.3-74.4,36.6c-15.7,24.6-10,65.7,10.7,86.3c22.8,22.8,54.4,35.5,84.7,23.9
			c28.8-10.8,47-32.5,46.6-65.7c-0.4-33.2-28.8-66.1-59.1-73.9c-32.4-8.2-66.2,12-73.3,46.3C35.1,106.4,86.7,121.3,93.8,86.2
			L93.8,86.2z"/>
	</g>
</g>
<g>
	<g>
		<path class="st0" d="M121.6,83.6c0.4-0.4,0.7-0.4,1.1-0.7c-2.1,1.1-4.3,1.9-6.4,3c1.4-0.4,2.5-0.7,3.9-1.1
			c-2.5,0.4-4.6,0.7-7.1,1.1c1.4,0,2.5,0,3.9,0c-2.5-0.4-4.6-0.7-7.1-1.1c3.9,0.7,7.8,2.2,11.4,3.7c6,2.6,15.3,0.4,20.6-3
			c5.7-3.4,10.7-10.1,12.1-16.8c1.4-7.1,1.1-15.3-2.8-21.7c-3.9-6.7-9.3-10.1-16-12.7c-6-2.6-11.7-4.1-18.5-4.9
			c-8.2-0.7-15.3,1.9-22.8,5.2c-5.7,2.6-10.7,10.8-12.1,16.8c-1.8,6.7-1.1,15.7,2.8,21.7c3.6,6,9.3,11.2,16,12.7
			C108.4,88.1,114.8,87,121.6,83.6L121.6,83.6z"/>
	</g>
</g>
<g>
	<g>
		<path class="st0" d="M106.6,66.4c1.8,1.1,6,2.6,7.1,4.5c-2.5-2.2-2.8-2.2-0.4-0.4c1.1,1.1,2.1,1.9,2.8,3c1.8,2.2,1.8,2.2-0.4-0.4
			c0.7,1.1,1.4,2.6,2.1,3.7c-1.4-3.4-1.4-3.7-0.7-0.7c0.7,3,0.7,3,0-1.1c0.7,14.6,11.7,28.8,26.7,28c13.9-0.7,27.4-12.3,26.7-28
			c-1.4-25.4-16-45.2-37-57.1C121.2,10.8,104.1,14.1,97,28C90.3,41,93.5,59,106.6,66.4L106.6,66.4z"/>
	</g>
</g>
<g>
	<g>
		<path class="st0" d="M31.9,48.5c-1.1,3.4-1.8,6.7-2.5,10.5c3.6-0.4,7.1-0.7,10.3-0.7c0-1.5,0-2.6,0-4.1c-0.4-5.2-8.5-3.4-10,0
			c-3.6,7.1-7.1,14.6-7.1,22.8c0,5.6,10.3,3.7,10.3-0.7c0-4.5,0.7-8.2,2.8-12.3c2.5-5.6-7.8-5.2-10-1.1c-2.1,4.5-3.2,9.3-3.2,14.6
			c3.6-0.4,7.1-0.7,10.3-0.7c0-7.5,3.2-14.2,6.8-20.5c-3.2,0-6.8,0-10,0c0,1.5,0,2.6,0,4.1c0.4,5.6,9.6,3.7,10.3-0.7
			c0.7-3.4,1.4-6.7,2.5-10.5C43.6,42.5,33.3,44,31.9,48.5L31.9,48.5z"/>
	</g>
</g>
<g>
	<g>
		<path class="st0" d="M165.3,54.5c6,4.9,10,10.8,12.5,18.3c1.1-0.4,2.1-0.7,3.2-1.1c-3.2-5.2-6.8-10.5-10.7-14.9
			c-0.7-0.7-3.9,0-3.2,1.1c2.1,6.3,4.6,12.7,7.5,18.7c1.1-0.4,2.1-0.7,3.2-1.1c-2.8-3.4-5.7-6.7-8.5-9.7c-0.7-1.1-3.9,0-3.2,1.5
			c3.2,6,5.3,12,7.1,18.7c1.1-0.4,2.1-0.7,3.2-1.1c-1.8-2.6-3.6-5.2-5.7-7.8c-0.7-1.1-3.9,0-3.2,1.5c4.3,6.7,7.5,13.8,9.3,21.7
			c1.1-0.4,2.1-0.7,3.2-1.1c-1.4-2.2-2.8-4.1-4.3-6.3c-0.7-1.1-3.9,0-3.2,1.1c2.1,5.6,2.8,10.8,2.5,16.8c1.1-0.4,2.1-0.4,3.6-0.7
			c-0.7-2.2-1.8-4.1-2.5-6.3c-0.7-1.5-3.6-0.4-3.6,1.1c0.7,7.5,1.1,14.9,1.8,22.8c1.1-0.4,2.1-0.7,3.6-1.1c-1.8-3.7-3.2-7.8-5-11.6
			c-0.4-1.1-3.2-0.7-3.6,0.7c-0.7,7.1-1.4,13.8-2.1,20.9c1.1-0.4,2.1-0.4,3.6-0.7c-0.4-2.2-1.1-4.5-1.4-6.7
			c-0.4-1.5-3.2-0.4-3.6,0.7c-1.1,7.1-2.8,13.8-5,20.2c1.1-0.4,2.1-0.4,3.6-0.7c0-2.2-0.4-4.5-0.4-6.7c0-1.5-2.5-0.4-3.2,0
			c-1.4,1.5-2.8,3-3.9,4.9c1.1,0,2.1,0,3.2,0.4c0.4-1.1,0.7-1.9,1.1-3c0.4-1.5-2.8-0.7-3.2,0c-1.8,2.6-3.9,5.6-5.7,8.2
			c1.1,0,2.1,0,3.2,0c1.1-6.7-9.6-6.7-8.5-1.1c0.4,2.2,2.8,3.7,5,3c4.6-1.5,6.4-11.2,7.1-15.3c0.4-1.9-3.2-0.7-3.6,0.4
			c-1.8,5.6-4.3,9.3-8.9,12.7c-1.8,1.5,1.1,2.2,2.1,1.5c5-3.7,8.2-8.2,10-14.2c-1.1,0-2.1,0.4-3.6,0.4c-0.7,4.9-2.8,9-4.3,13.4
			c-0.4,1.5,2.8,0.7,3.2,0c1.8-2.6,3.9-5.6,5.7-8.2c-1.1,0-2.1,0-3.2,0c-0.4,1.1-0.7,1.9-1.1,3c-0.4,1.5,2.5,0.7,3.2,0.4
			c1.4-1.5,2.8-3,3.9-4.9c-1.1,0-2.1,0-3.2,0c0,2.2,0.4,4.5,0.4,6.7c0,1.5,3.2,0.4,3.6-0.7c2.5-6.7,3.9-13.4,5-20.2
			c-1.1,0.4-2.1,0.4-3.6,0.7c0.4,2.2,1.1,4.5,1.4,6.7c0.4,1.5,3.2,0.4,3.6-0.7c0.7-7.1,1.4-13.8,2.1-20.9c-1.1,0.4-2.1,0.4-3.6,0.7
			c1.8,3.7,3.2,7.8,5,11.6c0.7,1.5,3.6,0.4,3.6-1.1c-0.7-7.5-1.1-14.9-1.8-22.8c-1.1,0.4-2.1,0.7-3.6,1.1c0.7,2.2,1.8,4.1,2.5,6.3
			c0.4,1.1,3.2,0.7,3.6-0.7c0.4-6.3-0.4-11.6-2.5-17.6c-1.1,0.4-2.1,0.7-3.2,1.1c1.4,2.2,2.8,4.1,4.3,6.3c0.7,1.1,3.6,0,3.2-1.1
			c-2.1-8.2-5.3-15.3-9.6-22.4c-1.1,0.4-2.1,1.1-3.2,1.5c1.8,2.6,3.6,5.2,5.7,7.8c0.7,1.1,3.6,0,3.2-1.1c-1.4-6.7-3.9-13.1-7.1-19
			c-1.1,0.4-2.1,1.1-3.2,1.5c2.8,3.4,5.7,6.7,8.5,9.7c0.7,0.7,3.9,0,3.2-1.1c-2.8-6-5.3-12.3-7.5-18.7c-1.1,0.4-2.1,0.7-3.2,1.1
			c3.9,4.9,7.5,9.7,10.7,14.9c0.7,1.1,3.6,0,3.2-1.1c-2.5-7.8-6.8-14.2-13.2-19.4C166.8,51.9,163.6,53.3,165.3,54.5L165.3,54.5z"/>
	</g>
</g>
<g>
	<g>
		<path class="st0" d="M168.9,64.2c-1.1-4.1-2.8-7.5-5-10.8c-1.1,0.4-2.1,1.1-3.2,1.5c3.6,3.4,7.1,7.1,6.8,12.3
			c1.1-0.4,2.1-0.4,3.6-0.7c-1.4-5.2-3.2-10.5-6-14.9c-1.1,0.7-1.8,1.1-2.8,1.9c1.1,0.7,1.8,1.9,2.5,3c0.7,1.1,3.9,0,3.2-1.5
			c-0.7-1.5-1.8-2.6-2.8-3.7c-0.7-0.7-3.6,0.4-2.8,1.9c2.5,4.5,4.6,9.3,5.7,14.6c0.4,1.5,3.2,0.7,3.6-0.7c0.7-6-3.2-9.7-7.1-13.4
			c-1.1-0.7-4.3,0-3.2,1.5c2.1,3,3.9,6.7,5,10.5C165.7,66.4,169.3,65.7,168.9,64.2L168.9,64.2z"/>
	</g>
</g>
<g>
	<g>
		<path class="st0" d="M45.8,39.2c-1.4-1.1-2.5-2.2-3.6-3.4c-1.1,0.4-2.1,1.1-2.8,1.5c1.1,0.7,2.5,1.5,3.6,2.2
			c0.7,0.4,3.6,0,3.2-1.5c-0.4-1.1,2.8-3.7,3.2-5.2c0.4-1.5-2.8-0.7-3.2,0c-1.1,1.9-1.8,3.7-2.1,6.3c-1.1,1.5,2.1,0.4,2.5,0
			c0.4-0.7,0.7-1.1,1.1-1.5c-1.1,0-2.1,0-3.2,0c-2.8,7.8-4.6,15.7-5.7,23.9c0,1.5,3.2,0.7,3.6-0.4c1.1-8.2,2.8-16.1,5.7-23.9
			c0.4-1.5-2.8-0.4-3.2,0c-0.7,0.7-1.1,1.1-1.4,1.5c1.1,0,2.1,0,3.2,0c0.4-1.9,1.1-3.7,2.1-5.6c-1.1,0-2.1,0-3.2,0
			c-0.7,2.6-3.9,2.6-3.2,6c1.1-0.7,2.1-1.1,3.2-1.5c-1.1-0.7-2.5-1.5-3.6-2.2C41.2,35,38,35.8,39,37.3c1.1,1.5,2.1,2.2,3.6,3.4
			C43.6,41.4,46.9,39.9,45.8,39.2L45.8,39.2z"/>
	</g>
</g>
<g>
	<g>
		<path class="st0" d="M164.6,140.7l-0.4-0.4c-0.7-0.7-3.9,0.7-3.2,1.1l0.4,0.4C162.1,142.6,165.3,141.1,164.6,140.7L164.6,140.7z"
			/>
	</g>
</g>
<g>
	<g>
		<path class="st0" d="M162.1,141.1c1.4,0,3.6-2.2,1.4-2.2C161.8,138.9,159.7,141.1,162.1,141.1L162.1,141.1z"/>
	</g>
</g>
<g>
	<g>
		<path class="st0" d="M33.3,128.8c1.1,3.7,2.5,7.5,4.3,10.8c0.7-1.1,1.4-1.9,2.1-2.2c-2.8-0.4-4.3-4.5-5.3-7.1c-1.1-3-2.5-6-3.9-9
			c-0.7-1.5-3.9-0.4-3.6,1.1c1.8,4.1,3.6,8.6,5.3,12.3c1.4,2.6,3.2,4.9,6,5.2c1.1,0,2.8-0.7,2.1-2.2c-1.8-3-3.2-6.3-3.9-10.1
			C36.2,125.8,33,126.9,33.3,128.8L33.3,128.8z"/>
	</g>
</g>
<g>
	<g>
		<path class="st0" d="M31.9,122.1c-3.6-7.5-4.3-15.7-1.8-23.5c0.4-0.7-3.2-0.4-3.6,0.7c-2.5,8.2-1.8,16.4,1.8,23.9
			C28.7,123.9,32.3,122.8,31.9,122.1L31.9,122.1z"/>
	</g>
</g>
<g>
	<g>
		<path class="st0" d="M45.1,138.9c4.6,6,9.3,12.3,13.9,18.3c1.1-0.4,2.1-0.7,3.2-1.5c-7.5-6.7-13.2-14.9-16.7-25
			c-0.4-1.1-3.9,0-3.6,1.1c3.6,10.1,9.3,18.3,16.7,25.4c0.7,0.7,3.9-0.4,3.2-1.5c-4.6-6-9.3-12.3-13.9-18.3
			C47.6,136.6,44.4,138.1,45.1,138.9L45.1,138.9z"/>
	</g>
</g>
<g>
	<g>
		<path class="st0" d="M55,36.5C64.6,19.7,88.1,13,105.6,19c1.4,0.4,3.9-1.9,2.1-2.6c-19.6-6.7-45.2,1.1-55.9,19.8
			C50.8,38,54.3,38,55,36.5L55,36.5z"/>
	</g>
</g>
<g>
	<g>
		<path class="st0" d="M165,46.6c-6-8.2-12.1-16.4-17.8-25c-0.7-0.7-3.9,0.4-3.6,1.1c3.2,6,7.8,10.1,12.5,14.9
			c2.5,2.6,5,5.6,5.7,9.3c0.7,4.1-0.4,8.2,1.1,12.3c0.4,0.7,3.6-0.4,3.6-1.1c-2.1-6.7,0.4-12.7-3.9-18.7
			c-4.6-6.3-11.4-10.5-14.9-17.9c-1.1,0.4-2.1,0.7-3.6,1.1c5.7,8.6,11.7,16.8,18.1,25C162.1,48.5,165.3,47,165,46.6L165,46.6z"/>
	</g>
</g>
<ellipse transform="matrix(0.4415 -0.8973 0.8973 0.4415 35.5684 158.904)" class="st1" cx="145.4" cy="50.9" rx="9.3" ry="16.9"/>
<ellipse transform="matrix(0.2455 -0.9694 0.9694 0.2455 40.6597 118.4007)" class="st1" cx="96.4" cy="33.1" rx="9.3" ry="18.6"/>
<ellipse transform="matrix(0.552 -0.8339 0.8339 0.552 -2.4698 119.4775)" class="st1" cx="109.9" cy="62" rx="10.3" ry="14.8"/>
</svg>
