<?xml version="1.0" encoding="utf-8"?>
<!-- Generator: Adobe Illustrator 22.0.1, SVG Export Plug-In . SVG Version: 6.00 Build 0)  -->
<svg version="1.1" id="Layer_1" xmlns="http://www.w3.org/2000/svg" xmlns:xlink="http://www.w3.org/1999/xlink" x="0px" y="0px"
	 viewBox="0 0 200 16383" style="enable-background:new 0 0 200 16383;" xml:space="preserve">
<style type="text/css">
	.st0{fill:#8E604D;}
</style>
<g>
	<path class="st0" d="M32,200.3c8.9-9.1,19.4-16.7,30.9-22.3c5.7-2.8,12.1-5.2,18.3-3.7c5.6,1.3,10,5.5,14,9.5
		c16.5,16.5,32.8,35,37.3,57.9c0.7,3.5,1.1,7.3-0.5,10.6c-1.3,2.7-3.8,4.7-6,6.8c-4.6,4.4-8.1,9.7-10.4,15.6"/>
	<g>
		<path class="st0" d="M33.7,202.1C44,191.8,58,180.4,72.5,177c8.9-2.1,15,2.6,21,8.6c5,5,10,10.2,14.6,15.6
			c9.1,10.7,17.2,22.8,21,36.5c1,3.6,2.1,7.7,1.4,11.4c-0.8,4.2-4.4,6.5-7.2,9.4c-4.4,4.5-7.6,9.8-10,15.6c-1.2,3,3.6,4.3,4.8,1.3
			c1.8-4.5,4.4-8.7,7.6-12.3c2.5-2.8,5.8-5,7.8-8.3c3.8-6,1.8-13.8-0.1-20.1c-4.5-15-13.7-28-24-39.6c-9-10.1-20.4-25.8-35.7-23.5
			c-8.1,1.2-15.9,5.8-22.7,10.2c-7.5,4.8-14.5,10.4-20.8,16.7C27.9,200.8,31.5,204.4,33.7,202.1L33.7,202.1z"/>
	</g>
</g>
<g>
	<path class="st0" d="M38.7,199.7c-12.5,6.5-23.9,18.4-23.8,32.5c0.1,6.1,2.2,12,4.4,17.7c3,7.9,5.9,15.8,8.9,23.7
		c0.9,2.3,1.7,4.7,1.6,7.1c-0.2,3.2-2.1,5.9-3.6,8.8c-10.4,20.3,2.7,46.4-6.3,67.3"/>
	<g>
		<path class="st0" d="M37.4,197.6c-10.7,5.7-20.8,14.8-24,26.9c-1.9,7.1-0.7,14.1,1.6,20.9c2.7,8.2,6,16.2,9.1,24.3
			c1.7,4.6,4.3,9.4,2.2,14.2c-1.3,3.1-3.2,5.9-4.3,9.1c-2.2,6.2-2.7,13-2.5,19.6c0.3,14.6,3.7,29.6-2,43.5c-1.2,3,3.6,4.3,4.8,1.3
			c5.1-12.6,3.2-26.1,2.4-39.3c-0.4-6.9-0.6-14.1,1.2-20.9c1.6-5.9,6.5-11.2,6.4-17.5c-0.1-7.1-4.7-14.9-7.1-21.4
			c-2.9-7.7-7-15.9-7.7-24.3c-1.1-14.6,10.6-25.8,22.4-32.2C42.8,200.3,40.3,196,37.4,197.6L37.4,197.6z"/>
	</g>
</g>
<g>
	<path class="st0" d="M115.6,275.4c-15.9,24.2-30.5,49.3-43.6,75.1c-5.2,10.2-10.3,22-6.5,32.8c1.8,4.9,5.2,8.9,8.1,13.2
		c15.5,22.3,18.4,50.8,20.9,77.8c1,11.5,2.1,22.9,3.1,34.4"/>
	<g>
		<path class="st0" d="M113.4,274.2c-9.6,14.8-18.8,29.8-27.5,45.1c-4.3,7.7-8.6,15.4-12.6,23.2c-3.7,7-7.6,14.1-9.9,21.8
			c-2.1,7-2.5,14.4,0.4,21.2c2.9,7,8.4,12.6,12.1,19.2c7.7,13.9,11.3,29.6,13.5,45.2c2.8,19.5,4,39.2,5.8,58.8c0.3,3.2,5.3,3.2,5,0
			c-1.5-16.7-2.8-33.5-4.7-50.3c-1.7-14.6-4-29.2-9.2-43c-2.5-6.6-5.6-13-9.5-18.9c-4.9-7.4-10.6-13.7-10-23.2
			c0.5-8.6,4.8-16.6,8.7-24.1c3.9-7.6,7.9-15,12-22.5c9.5-17.1,19.6-33.7,30.3-50.1C119.5,274,115.2,271.5,113.4,274.2L113.4,274.2z
			"/>
	</g>
</g>
<g>
	<path class="st0" d="M20.6,358.4c-3.9,24-2.9,48.7,3,72.3c3.4,13.6,8.3,27.3,6.7,41.2c-1.2,10.7-6.4,21.5-3.4,31.9"/>
	<g>
		<path class="st0" d="M18.2,357.8c-3.8,24.5-3,49.5,3,73.6c3,12.1,7.4,24.3,6.9,36.9c-0.5,12.3-6.6,23.8-3.6,36.2
			c0.7,3.1,5.6,1.8,4.8-1.3c-2.8-12,3.6-23.8,3.8-35.8c0.2-11.6-3.3-22.7-6.2-33.8c-6.4-24.3-7.7-49.6-3.9-74.5
			C23.5,356,18.7,354.6,18.2,357.8L18.2,357.8z"/>
	</g>
</g>
<g>
	<path class="st0" d="M24.6,503.9c-2.4,16.3-0.1,32.8-0.3,49.3c-0.4,42.3-16.4,85-6.8,126.2"/>
	<g>
		<path class="st0" d="M22.1,503.9c-2,15.1-0.4,30.3-0.3,45.5c0.2,15.3-1.8,30.4-4,45.5c-4.1,28.2-9.1,56.9-2.8,85.2
			c0.7,3.1,5.5,1.8,4.8-1.3c-6.5-29.2-0.5-58.9,3.6-88c1.9-13.7,3.5-27.5,3.3-41.3c-0.2-15.2-1.7-30.3,0.3-45.5
			C27.6,500.7,22.6,500.7,22.1,503.9L22.1,503.9z"/>
	</g>
</g>
<g>
	<path class="st0" d="M97.8,511.6c4.2,45.7-20.3,90.2-17.3,136c1.7,26.6,12.7,51.8,16.1,78.2c2.4,18.1,1.2,36.4,2.4,54.6
		c2.8,44,19.8,87,47.7,121.1"/>
	<g>
		<path class="st0" d="M95.3,511.6c2.3,27.4-5.2,53.9-11.1,80.3c-5.8,26.1-8.6,51.5-3,77.8c2.8,13.1,6.7,25.9,9.7,38.9
			c3.4,14.7,4.6,29.4,4.9,44.5c0.5,26.4,2.1,51.9,10,77.3c8.3,26.6,21.6,51.3,39.2,72.9c2,2.5,5.5-1.1,3.5-3.5
			c-15.9-19.6-28.3-42-36.3-65.9c-8.4-25.1-10.9-50.5-11.3-76.8c-0.2-13.7-0.7-27.3-3.2-40.8c-2.5-13.1-6.3-25.9-9.5-38.9
			c-3.2-13.2-5.6-26.6-5.3-40.2c0.2-13.3,2.5-26.5,5.3-39.4c6-28.3,14.7-56.7,12.2-86C100.1,508.5,95.1,508.4,95.3,511.6L95.3,511.6
			z"/>
	</g>
</g>
<g>
	<path class="st0" d="M18.9,677.6c-12.6,121.6,33.7,245.8,7.8,365.3"/>
	<g>
		<path class="st0" d="M16.4,677.6c-9.6,95,15.8,188.8,15.8,283.6c0,27.2-2.2,54.4-7.9,81c-0.7,3.1,4.1,4.5,4.8,1.3
			c20.2-94.6-3.4-190.2-8.8-285c-1.5-27-1.6-54.1,1.1-81C21.7,674.4,16.7,674.4,16.4,677.6L16.4,677.6z"/>
	</g>
</g>
<g>
	<path class="st0" d="M147.9,896.7c8,23.4,2.6,49.1-2.3,73.3c-12.3,60.2-21.6,121-27.8,182.2c-1.4,13.3-2.6,26.8-1.1,40.1
		c3.3,30,19.9,57.2,23.4,87.2"/>
	<g>
		<path class="st0" d="M145.5,897.4c8,24.6,2,50.3-2.9,74.9c-5.2,25.9-9.9,52-14.1,78.2c-4,25.4-7.5,50.9-10.5,76.4
			c-2.9,24.6-7.2,50.1-2.5,74.7c5,26.6,18.6,50.9,22,77.9c0.4,3.2,5.4,3.2,5,0c-2.9-23.5-13.1-44.8-19.4-67.4
			c-7.1-25.7-3.9-51.3-1-77.4c5.9-53,14.2-105.8,24.7-158.2c5.3-26.3,12.1-54,3.5-80.4C149.3,893,144.5,894.3,145.5,897.4
			L145.5,897.4z"/>
	</g>
</g>
<g>
	<path class="st0" d="M152.8,911.9c-3.3-10.9-9.7-20.9-18.2-28.5"/>
	<g>
		<path class="st0" d="M155.2,911.2c-3.6-11.4-10-21.5-18.8-29.6c-2.4-2.2-5.9,1.4-3.5,3.5c8.2,7.5,14.2,16.7,17.5,27.4
			C151.3,915.6,156.2,914.3,155.2,911.2L155.2,911.2z"/>
	</g>
</g>
<g>
	<path class="st0" d="M26.6,1037.1c-22.9,54.4-6.8,116.6-11.7,175.5c-1.5,17.8-4.9,35.9-1.3,53.3"/>
	<g>
		<path class="st0" d="M24.1,1036.4c-23.2,56.1-6.9,117.6-11.8,176.1c-1.5,18-4.7,36-1.2,54c0.6,3.2,5.4,1.8,4.8-1.3
			c-4-20.4,0.9-41.1,2-61.5c0.9-18.5,0.1-37-0.7-55.5c-1.5-37.2-2.8-75.4,11.7-110.5C30.2,1034.8,25.4,1033.5,24.1,1036.4
			L24.1,1036.4z"/>
	</g>
</g>
<g>
	<path class="st0" d="M87.2,317.2c14.6-14.7,29.2-29.5,43.7-44.2c7.8-7.9,16.2-17,16.3-28.1c0.1-9-5.3-17.1-10.4-24.4
		c-9.1-13-18.1-26-28.8-37.7c-7.2-8-17.7-16-27.8-12.4"/>
	<g>
		<path class="st0" d="M89,319c14.1-14.3,28.3-28.5,42.4-42.8c10.9-11.1,22.6-24.2,16.7-40.9c-2.9-8.1-8.3-15.1-13.2-22.1
			c-5.2-7.4-10.5-14.7-16.1-21.8c-9.1-11.4-22.4-28.5-39.1-23.4c-3.1,0.9-1.8,5.8,1.3,4.8c16-4.8,29.6,16,37.8,26.7
			c4.8,6.3,9.4,12.8,13.9,19.3c4.5,6.5,9.8,13.2,11.6,21.1c3.7,16.3-12.4,28.9-22.5,39c-12.1,12.2-24.2,24.4-36.2,36.6
			C83.2,317.7,86.7,321.2,89,319L89,319z"/>
	</g>
</g>
<g>
	<path class="st0" d="M86.5,171.4c-7.6-2.3-16.2-0.9-22.7,3.6"/>
	<g>
		<path class="st0" d="M87.1,169c-8.5-2.3-17.3-1-24.6,3.8c-2.7,1.8-0.2,6.1,2.5,4.3c6.3-4.1,13.5-5.3,20.8-3.3
			C88.9,174.7,90.2,169.9,87.1,169L87.1,169z"/>
	</g>
</g>
<g>
	<path class="st0" d="M12.3,1263.5c5.8,21.1,11.6,42.7,9.7,64.4c-1.1,12.4-4.8,24.5-8.4,36.4c-3.9,12.8-7.8,25.6-11.7,38.4"/>
	<g>
		<path class="st0" d="M9.8,1264.1c6.4,23.2,12.8,47.2,8.6,71.4c-3.9,22.5-12.3,44.6-19,66.5c-0.9,3.1,3.9,4.4,4.8,1.3
			c3.5-11.6,7-23.1,10.6-34.7c3.5-11.7,7.3-23.3,9-35.4c3.4-23.9-2.8-47.5-9.1-70.4C13.8,1259.7,9,1261,9.8,1264.1L9.8,1264.1z"/>
	</g>
</g>
<g>
	<path class="st0" d="M139.9,1276.5c3.6,47.6,1.7,95.6-5.6,142.8c-1.6,10.7-3.6,21.4-3.2,32.3c0.8,23,11.7,44.9,10.8,67.9"/>
	<g>
		<path class="st0" d="M137.4,1276.5c2.4,32.6,2.3,65.4-0.3,98c-1.4,17-3.6,33.9-6.2,50.8c-2.3,14.8-3,28.9-0.1,43.6
			c3.3,16.8,9.1,33.2,8.6,50.6c-0.1,3.2,4.9,3.2,5,0c0.4-14.5-3.4-28.4-6.7-42.4c-3.8-16.1-4.8-31.2-2.4-47.6
			c4.7-32.3,8.3-64.4,8.8-97.1c0.3-18.6-0.3-37.3-1.7-55.9C142.2,1273.3,137.2,1273.3,137.4,1276.5L137.4,1276.5z"/>
	</g>
</g>
<g>
	<path class="st0" d="M6.9,1396.3c-7,22.2-9.5,45.8-7.1,68.9c1.8,17.9,6.5,35.5,9.3,53.3c8.8,56.3-1.4,115.5,16.3,169.6"/>
	<g>
		<path class="st0" d="M4.5,1395.6c-5.7,18.2-8.5,37.3-8,56.4c0.5,19.9,5.2,39.1,8.7,58.6c7,38.2,4.7,77,7.1,115.6
			c1.3,21.2,4.2,42.3,10.7,62.6c1,3.1,5.8,1.7,4.8-1.3c-11.6-36.2-11.1-74.4-12-112c-0.4-18-1.2-36.1-3.7-54
			c-2.8-19.8-8.3-39.1-10-59.1c-1.9-22.1,0.7-44.3,7.3-65.4C10.3,1393.9,5.5,1392.6,4.5,1395.6L4.5,1395.6z"/>
	</g>
</g>
<g>
	<path class="st0" d="M148.5,1514.7c4.6,9.2,6.5,19.6,5.6,29.8c2.1-13.9-4.5-27.4-10.8-39.9"/>
	<g>
		<path class="st0" d="M146.3,1516c4.3,9,6,18.6,5.2,28.5c-0.2,3.3,4.6,3.1,5,0c1.8-14.8-4.7-28.3-11.2-41.1
			c-1.5-2.9-5.8-0.3-4.3,2.5c6.1,12.1,12.2,24.7,10.5,38.6c1.7,0,3.3,0,5,0c0.8-10.8-1.2-21.3-5.9-31.1
			C149.2,1510.6,144.9,1513.1,146.3,1516L146.3,1516z"/>
	</g>
</g>
<g>
	<path class="st0" d="M153,1542.1c8.9,37.7-5.8,76.6-7.9,115.4c-1.5,27.2,3.3,54.3,6.8,81.3c5.4,42.6,7.4,85.7,6.1,128.6"/>
	<g>
		<path class="st0" d="M150.6,1542.8c9.2,40.9-7.7,81.6-8.2,122.5c-0.3,21.3,2.9,42.5,5.7,63.6c2.9,21.7,5.2,43.5,6.4,65.4
			c1.4,24.4,1.7,48.8,0.9,73.2c-0.1,3.2,4.9,3.2,5,0c1.3-43.6-0.7-87.3-6.3-130.6c-2.8-21.5-6.3-43-6.7-64.8
			c-0.4-21.5,3.5-42.5,6.9-63.7c3.6-22.2,6.1-44.7,1.1-66.9C154.7,1538.3,149.9,1539.6,150.6,1542.8L150.6,1542.8z"/>
	</g>
</g>
<g>
	<path class="st0" d="M27,1684.1c-5.6,41.1,5.4,82.6,6.6,124.1c0.9,31.3-3.7,62.5-8.3,93.4"/>
	<g>
		<path class="st0" d="M24.5,1684.1c-4.6,35.8,2.7,71.3,5.6,106.9c3,37-1.8,73.5-7.2,110c-0.5,3.1,4.3,4.5,4.8,1.3
			c5.4-36.3,10.4-72.6,7.6-109.4c-2.8-36.2-10.5-72.4-5.8-108.8C29.9,1680.9,24.9,1681,24.5,1684.1L24.5,1684.1z"/>
	</g>
</g>
<g>
	<path class="st0" d="M161.9,1859.7c-4.1,108.3,25.1,218,3.8,324.2"/>
	<g>
		<path class="st0" d="M159.4,1859.7c-3.1,84.3,13.6,167.8,11.5,252c-0.6,24-2.9,48-7.5,71.6c-0.6,3.1,4.2,4.5,4.8,1.3
			c16.5-83.6,2.6-168.5-2.5-252.6c-1.4-24.1-2.1-48.2-1.3-72.3C164.5,1856.4,159.5,1856.4,159.4,1859.7L159.4,1859.7z"/>
	</g>
</g>
<g>
	<path class="st0" d="M26.1,1903.3c-5.7,62-7.2,124.4-4.6,186.6c0.7,17,1.8,34.2-0.8,51c-4.5,28.8-19.5,57.4-12.6,85.7"/>
	<g>
		<path class="st0" d="M23.6,1903.3c-4,44.2-6,88.6-5.8,133c0.1,21.7,0.9,43.3,1.7,65c0.4,10.4,0.6,20.8-0.3,31.2
			c-0.9,10.4-3.4,20.6-6.1,30.7c-5.7,21-12.4,42.3-7.4,64.1c0.7,3.1,5.5,1.8,4.8-1.3c-4.6-20.2,1.6-40.3,6.9-59.7
			c5.4-19.7,7.9-38.8,7.3-59.3c-1.2-43.5-2.6-86.8-0.9-130.3c0.9-24.5,2.6-49,4.8-73.4C28.9,1900.1,23.9,1900.1,23.6,1903.3
			L23.6,1903.3z"/>
	</g>
</g>
<g>
	<path class="st0" d="M164.7,2190c-4.2,10.6-1.3,22.5,1.1,33.7c5.2,24.8,7.3,50.3,6.3,75.7"/>
	<g>
		<path class="st0" d="M162.3,2189.3c-5.9,16.6,1.6,35.3,4.1,51.9c2.9,19.2,3.9,38.7,3.1,58.2c-0.1,3.2,4.9,3.2,5,0
			c0.7-18-0.1-36-2.5-53.9c-1.2-8.8-2.8-17.4-4.6-26.1c-2-9.6-3.7-19.3-0.3-28.8C168.2,2187.6,163.4,2186.3,162.3,2189.3
			L162.3,2189.3z"/>
	</g>
</g>
<g>
	<path class="st0" d="M164.6,2210.9c0.7-12,1.5-24,2.2-36"/>
	<g>
		<path class="st0" d="M167.1,2210.9c0.7-12,1.5-24,2.2-36c0.2-3.2-4.8-3.2-5,0c-0.7,12-1.5,24-2.2,36
			C161.9,2214.1,166.9,2214.1,167.1,2210.9L167.1,2210.9z"/>
	</g>
</g>
<g>
	<path class="st0" d="M7.2,2226c-1.4,8.5,3.8,16.5,7.2,24.4c6.4,15.1,6.1,32,5.6,48.4c-1.6,53.2-4.2,106.4-7.8,159.5"/>
	<g>
		<path class="st0" d="M4.7,2226c-1,8.8,3.4,16.3,6.8,24.1c3.8,8.7,5.4,18.1,5.9,27.6c1,19.3-0.5,38.8-1.3,58.1
			c-1.6,40.9-3.8,81.8-6.6,122.6c-0.2,3.2,4.8,3.2,5,0c2.8-40.8,5-81.7,6.6-122.6c0.7-19.3,2.3-38.8,1.3-58.1
			c-0.4-8.3-1.6-16.7-4.4-24.6c-3.2-8.9-9.5-17.1-8.4-27C10.1,2222.8,5.1,2222.8,4.7,2226L4.7,2226z"/>
	</g>
</g>
<g>
	<path class="st0" d="M177.1,2297.8c1.1,84.8-0.8,169.7-5.7,254.3c-0.5,9-1.1,18.1,0.2,27.1c1.2,8.3,3.8,16.2,5.6,24.3
		c5.7,25.5,3,51.9,0.3,77.9"/>
	<g>
		<path class="st0" d="M174.6,2297.8c0.7,51,0.2,102-1.3,153c-0.7,25.2-1.8,50.3-3,75.5c-0.6,12.8-1.8,25.6-2,38.4
			c-0.2,11.6,2.1,22.3,5,33.4c7.1,27.5,4.6,55.4,1.7,83.3c-0.3,3.2,4.7,3.2,5,0c2.5-23.9,4.9-48.1,0.9-72c-2-12.1-6.6-23.7-7.4-36
			c-0.8-12.3,0.6-24.9,1.3-37.2c2.7-50.6,4.4-101.3,4.9-152c0.3-28.8,0.3-57.6-0.1-86.5C179.6,2294.6,174.6,2294.6,174.6,2297.8
			L174.6,2297.8z"/>
	</g>
</g>
<g>
	<path class="st0" d="M175.5,2311.5c2.7-15.5,1.3-31.6-3.9-46.4"/>
	<g>
		<path class="st0" d="M177.9,2312.1c2.6-16.1,1.4-32.3-3.9-47.7c-1-3-5.9-1.7-4.8,1.3c5,14.5,6.4,29.9,3.9,45.1
			C172.6,2313.9,177.4,2315.3,177.9,2312.1L177.9,2312.1z"/>
	</g>
</g>
<g>
	<path class="st0" d="M10.2,2457.3c15.9,43.4,2.7,91.9,9.5,137.6c2.6,17.4,8.1,34.3,10,51.8c7,63.5-33.6,126.8-19.7,189.2"/>
	<g>
		<path class="st0" d="M7.8,2458c8.9,24.8,8.5,51.2,7.8,77.3c-0.7,25.7-0.8,50.8,4.7,76.1c2.9,13.4,6.4,26.7,7.4,40.4
			c0.9,12,0.1,24.1-1.6,36.1c-3.4,24.2-10.4,47.7-15.4,71.5c-5.4,25.4-8.6,51.5-3.1,77.2c0.7,3.1,5.5,1.8,4.8-1.3
			c-10.5-48.6,10.9-96.2,18.1-143.6c1.8-11.5,2.8-23.2,2.4-34.9c-0.4-12.4-2.8-24.5-5.6-36.6c-3-13.4-5.9-26.7-6.8-40.4
			c-0.8-13-0.5-26-0.2-39c0.8-28.2,1.8-57-7.8-84C11.5,2453.7,6.7,2455,7.8,2458L7.8,2458z"/>
	</g>
</g>
<g>
	<path class="st0" d="M180.3,2686.2c7.2,51.7-4.7,103.8-8,155.9c-1.6,24.8-1.2,49.7-0.8,74.6c0.8,50.2,1.6,100.4,2.4,150.7"/>
	<g>
		<path class="st0" d="M177.8,2686.2c6.6,48.9-3.3,97.6-7.3,146.3c-4,49.6-1.2,99.9-0.4,149.6c0.5,28.4,0.9,56.8,1.4,85.2
			c0.1,3.2,5.1,3.2,5,0c-0.8-50.2-1.6-100.4-2.4-150.7c-0.4-24.8-0.8-49.7,0.8-74.6c1.5-24.5,5-48.9,7.4-73.3
			c2.8-27.5,4.2-55.2,0.5-82.6C182.4,2683.1,177.4,2683,177.8,2686.2L177.8,2686.2z"/>
	</g>
</g>
<g>
	<path class="st0" d="M11.1,2840.8c7.4,44.7-7.7,91.2,2.2,135.3"/>
	<g>
		<path class="st0" d="M8.7,2841.4c7.1,45-7.5,90.5,2.2,135.3c0.7,3.1,5.5,1.8,4.8-1.3c-9.6-44.7,4.9-90.4-2.2-135.3
			C13,2836.9,8.2,2838.3,8.7,2841.4L8.7,2841.4z"/>
	</g>
</g>
<g>
	<path class="st0" d="M14.7,2971.3c7.4,30.7,3.9,62.9,0.4,94.3c-11,97.4-21.8,194.9-32.6,292.3"/>
	<g>
		<path class="st0" d="M12.3,2972c5.7,24.2,4.8,49.2,2.4,73.8c-2.4,25.1-5.5,50.1-8.3,75.2c-5.6,50.4-11.3,100.7-16.9,151.1
			c-3.2,28.6-6.4,57.3-9.5,85.9c-0.4,3.2,4.6,3.2,5,0c11.3-101.8,23.4-203.6,34.1-305.5c2.9-27.2,4.4-54.9-1.9-81.7
			C16.4,2967.5,11.5,2968.9,12.3,2972L12.3,2972z"/>
	</g>
</g>
<g>
	<path class="st0" d="M174.5,3065.7c1.9,39.2,16.3,77.5,14.4,116.7c-0.9,18.5-5.5,36.5-9.3,54.6c-18.8,89.8-18.8,182.6-13.5,274.2"
		/>
	<g>
		<path class="st0" d="M172,3065.7c1.6,28.8,9.5,56.6,13,85.1c1.8,14.3,2.2,28.7,0.4,43c-1.8,14.7-5.4,29.1-8.4,43.5
			c-11.9,57.2-16.2,115.7-16.4,174c-0.1,33.3,1.1,66.7,3.1,99.9c0.2,3.2,5.2,3.2,5,0c-3.4-59.1-4.7-118.4-0.1-177.4
			c2.3-29.7,6.1-59.3,11.9-88.5c5.5-28.1,12.8-55.4,10.5-84.3c-2.5-32.1-12.2-63.1-14-95.3C176.9,3062.5,171.9,3062.5,172,3065.7
			L172,3065.7z"/>
	</g>
</g>
<g>
	<path class="st0" d="M-16.8,3358.4c2.7,60.4,5.4,120.7,8,181.1c0.6,13.2,1.2,26.5,0.3,39.7c-1.2,17.6-5,35-8.4,52.3
		c-8.6,43.6-14.9,87.6-18.8,131.8"/>
	<g>
		<path class="st0" d="M-19.3,3358.4c2.4,53.7,4.8,107.5,7.2,161.2c1.2,26.6,3,53.1-1.2,79.6c-4,25.4-9.9,50.6-13.9,76
			c-4.7,29.2-8.3,58.6-11,88.1c-0.3,3.2,4.7,3.2,5,0c2.4-26.8,5.6-53.5,9.7-80c4-25.9,9.6-51.4,14.1-77.2
			c4.5-25.6,3.9-50.7,2.7-76.6c-1.2-26.5-2.4-53.1-3.5-79.6c-1.4-30.5-2.7-61-4.1-91.5C-14.4,3355.2-19.4,3355.1-19.3,3358.4
			L-19.3,3358.4z"/>
	</g>
</g>
<g>
	<path class="st0" d="M170.1,3502.3c21.5,120.7,1,245.1-30.1,363.7c-6.2,23.9-13,48.2-11,72.8c1.5,18.7,8.1,36.7,10.2,55.4
		c2,17.8-0.1,35.8,0.5,53.7c1.7,53,27,103.4,26.1,156.4"/>
	<g>
		<path class="st0" d="M167.7,3503c16.4,93.4,7.9,189-11,281.4c-4.7,23.1-10.1,46.1-15.9,69c-5.6,21.9-12.4,43.9-14.1,66.6
			c-1.8,23.4,5.4,44.8,9.2,67.5c4,23.6,0,47.5,2.1,71.2c4.4,49.3,26,95.8,25.5,145.7c0,3.2,5,3.2,5,0c0.5-44.2-16.2-85.7-23.3-128.7
			c-1.9-11.7-3-23.5-3-35.4c0-11.5,0.8-23,0.4-34.6c-0.7-23.8-9.9-46.1-11.2-69.7c-1.3-23.9,5.3-47.3,11.3-70.2
			c6-22.8,11.5-45.7,16.4-68.8c9.8-45.7,17.2-91.9,20.5-138.6c3.7-52.3,2-105-7.1-156.7C172,3498.5,167.1,3499.8,167.7,3503
			L167.7,3503z"/>
	</g>
</g>
<g>
	<path class="st0" d="M-33.6,3763.1c-0.7,50.6-6.5,101.1-17.3,150.6c-4.1,18.9-9,37.6-11.2,56.8c-2.9,25.4-1.2,51.2-2.4,76.7
		c-1.3,28.5-6.3,56.7-8.9,85.2c-3.3,36.1-2.8,72.5-6.5,108.5c-4.9,47.8-17.2,94.7-36.4,138.7"/>
	<g>
		<path class="st0" d="M-36.1,3763.1c-0.6,41.3-4.5,82.5-11.8,123.2c-3.6,19.7-8.4,39.2-12.4,58.8c-4.1,19.8-5.8,39.6-6,59.8
			c-0.2,20.6,0,41.2-2,61.8c-1.9,20.4-5,40.6-7,60.9c-4.1,40.7-3,81.8-7.9,122.5c-5.4,44.2-17.3,87.5-35,128.3
			c-1.3,2.9,3,5.5,4.3,2.5c15.5-35.8,26.7-73.4,33-111.9c6.5-40,6.3-80.5,9-120.9c1.4-20.8,4.1-41.5,6.6-62.2
			c2.5-20.8,3.9-41.5,4-62.4c0.1-21-0.1-42.1,3.3-62.9c3.3-20.4,8.7-40.4,12.7-60.6c8.9-45.1,13.7-91,14.4-136.9
			C-31,3759.9-36,3759.9-36.1,3763.1L-36.1,3763.1z"/>
	</g>
</g>
<g>
	<path class="st0" d="M164.6,4202.8c-1,44.4-2.1,88.8-3.1,133.3c-0.6,25-1.2,50.1-1.8,75.1c-1.8,78.6-3.7,157.3,2.1,235.7"/>
	<g>
		<path class="st0" d="M162.1,4202.8c-1.4,57.9-2.7,115.9-4.1,173.8c-1.4,57.8-3.1,115.5-2.5,173.3c0.3,32.4,1.5,64.7,3.8,97
			c0.2,3.2,5.2,3.2,5,0c-4.2-57.7-4.4-115.5-3.5-173.3c1-57.8,2.6-115.6,3.9-173.3c0.8-32.5,1.5-65,2.3-97.5
			C167.2,4199.6,162.2,4199.6,162.1,4202.8L162.1,4202.8z"/>
	</g>
</g>
<g>
	<path class="st0" d="M-106.4,4353.4c-9.7,57.8-19.5,117-9.8,174.8c2.7,15.9,6.8,31.7,8.4,47.8c1.9,19.4,0.1,39.1,0.6,58.6
		c2.2,75.2,40.1,146.9,35.8,222c-1.4,23.5-6.9,46.5-12.3,69.4c-25.1,104.8-50.2,209.7-75.2,314.5"/>
	<g>
		<path class="st0" d="M-108.8,4352.7c-9.8,58-19.6,117.4-9.8,176.1c2.5,15.1,6.4,29.9,8.1,45.2c1.7,14.9,1,29.9,0.8,44.9
			c-0.4,27.5,3.3,54.4,9.2,81.3c11.8,53.3,30.9,106.6,26.2,162c-2.6,29.9-10.9,59.2-17.9,88.3c-7.1,29.8-14.2,59.5-21.4,89.3
			c-15.9,66.7-31.9,133.3-47.8,200c-0.7,3.1,4.1,4.5,4.8,1.3c14.2-59.5,28.5-119.1,42.7-178.6c7.1-29.8,14.2-59.5,21.4-89.3
			c7-29.1,14.9-58.2,20.1-87.6c4.7-26.9,4.7-53.7,0.7-80.7c-4-27-11.1-53.5-17.8-79.9c-6.7-26.8-13-53.9-14.8-81.5
			c-1-14.7-0.2-29.4-0.2-44c0.1-14.6-1.2-28.9-3.9-43.2c-3.1-16.4-6.7-32.5-8.2-49.2c-1.5-16.8-1.6-33.7-0.7-50.6
			c1.8-34.4,7.5-68.4,13.2-102.3C-103.4,4350.9-108.3,4349.5-108.8,4352.7L-108.8,4352.7z"/>
	</g>
</g>
<g>
	<path class="st0" d="M159.3,4634.9c19.3,84.9-12,172-22.1,258.5c-11.5,98.9,4.9,198.6,21.3,296.8"/>
	<g>
		<path class="st0" d="M156.9,4635.6c15.9,71.1-3.2,143.2-15.5,213.3c-6.2,35.5-10.1,71.1-10.5,107.1c-0.4,37.3,2.4,74.5,6.7,111.6
			c4.8,41.3,11.7,82.4,18.5,123.4c0.5,3.2,5.3,1.8,4.8-1.3c-12.3-73.7-24.6-147.9-25.1-222.8c-0.2-37,3-73.6,9.2-110
			c6-35.5,13.8-70.7,18.6-106.5c5.2-38.6,6.5-77.8-2-116C161,4631.1,156.2,4632.4,156.9,4635.6L156.9,4635.6z"/>
	</g>
</g>
<g>
	<path class="st0" d="M157,5183.7c4.9,67.2-7.2,134.3-14.2,201.3c-18.6,178.6-0.5,358.6,2.5,538.1"/>
	<g>
		<path class="st0" d="M154.5,5183.7c3.4,47.7-1.6,95.4-7.3,142.7c-5.8,48-10.9,96-13.2,144.4c-4.4,96.3-0.6,192.7,3.4,288.9
			c2.2,54.5,4.5,108.9,5.4,163.4c0.1,3.2,5.1,3.2,5,0c-1.6-96.8-7.6-193.4-9.9-290.2c-1.1-48.1-1.3-96.3,0.4-144.4
			c1.7-48.1,5.8-95.8,11.6-143.6c6.5-53.5,13.4-107.3,9.6-161.3C159.3,5180.5,154.3,5180.5,154.5,5183.7L154.5,5183.7z"/>
	</g>
</g>
<g>
	<path class="st0" d="M-156.2,5233.2c1.3,19.4,2.8,38.8,2.9,58.2c0.2,53.4-10.4,106.5-9.5,159.9c0.4,25.9,3.6,51.8,1.7,77.7
		c-1.7,22.8-7.2,45-10.3,67.6c-13.8,99.5,18.8,201.5,2.7,300.7c-3.6,22.1-9.5,43.8-12.4,66c-5.2,40.7-0.7,86-25.5,118.7"/>
	<g>
		<path class="st0" d="M-158.7,5233.2c2,29.2,3.7,58.2,2,87.5c-1.6,29.3-5.3,58.4-7.3,87.7c-2,29.4-0.5,58.3,0.6,87.6
			c0.5,14.2,0.4,28.3-1.2,42.5c-1.7,14.9-4.8,29.6-7.3,44.4c-9.3,54.9-4.7,110.1,0.1,165.2c2.5,28,4.8,56.1,5,84.3
			c0.2,28.7-2.6,57-8.4,85.1c-3.1,15.3-6.6,30.5-8.5,45.9c-1.7,13.3-2.3,26.7-3.3,40c-1.9,27.1-5.3,55.1-21.9,77.5
			c-1.9,2.6,2.4,5.1,4.3,2.5c14.1-19.1,19-42.4,21.4-65.6c2.6-25.6,3.2-51.1,8.2-76.5c5.4-27.6,11.3-54.7,12.7-82.9
			c1.4-28-0.1-56.1-2.2-84.1c-4.4-56.6-12-113.5-5.4-170.3c3.3-28.4,10.9-56.1,11.7-84.8c0.9-29.2-2.9-58.3-2-87.5
			c1-33.2,5.3-66.2,7.7-99.4c2.4-33.2,1-66-1.3-99.2C-154,5230-159,5230-158.7,5233.2L-158.7,5233.2z"/>
	</g>
</g>
<g>
	<path class="st0" d="M142.8,5920.5c7.5,40,15.1,80.7,10.3,121.1c-2.5,20.9-8.3,41.3-12,62.1c-5.9,32.6-6.7,65.8-7.5,98.9
		c-1.2,48.6-2.3,97.3,2.1,145.8c2.3,25.1,6.1,50,8,75.2c1.4,19,1.7,38.1,2,57.2c1.3,80.1,2.6,160.3,3.9,240.4"/>
	<g>
		<path class="st0" d="M140.4,5921.2c4.9,25.8,9.7,51.7,11.2,78c1.5,26.4-1.9,51.7-7.5,77.5c-5.5,24.9-9.5,49.7-11.1,75.2
			c-1.7,26-2,52.2-2.5,78.2c-0.5,26.3-0.7,52.6,0.3,78.8c1,25.8,3.6,51.3,6.6,76.9c6.1,52,6,104.2,6.9,156.4
			c1,59.6,1.9,119.2,2.9,178.8c0.1,3.2,5.1,3.2,5,0c-0.9-53.3-1.7-106.6-2.6-159.9c-0.9-52.6,0.3-105.6-5.2-158
			c-2.7-25.8-6.3-51.6-7.8-77.5c-1.6-26.6-1.7-53.2-1.3-79.8c0.7-52.3,0.3-105.3,11.2-156.7c2.9-13.7,6.2-27.4,8.3-41.3
			c2.1-14.2,2.7-28.6,2.2-43c-1.1-28.7-6.4-57-11.7-85.1C144.6,5916.7,139.8,5918,140.4,5921.2L140.4,5921.2z"/>
	</g>
</g>
<g>
	<path class="st0" d="M-194.9,6075.1c-4.3,21.8-8.5,43.7-9,65.9c-0.4,18.2,1.8,36.4,3.3,54.6c2.8,33.3,3.5,66.8,2.4,100.2
		c-0.9,28.1-3.2,56.3-1.9,84.4c2.3,49.6,15.4,98.5,13.4,148.1c-2.1,50.7-20,99.8-20.7,150.5c-0.6,47.1,13.6,95,2.7,140.8"/>
	<g>
		<path class="st0" d="M-197.3,6074.5c-4.7,23.9-9.3,48-9.1,72.4c0.2,24.8,3.8,49.5,5.1,74.3c1.3,24.9,1.5,49.8,0.7,74.7
			c-0.8,24.9-2.7,49.7-2.2,74.6c0.9,49.1,13.7,97.2,13.9,146.3c0.2,47.7-15,93.4-19.6,140.6c-2.6,26.9,0.1,53.4,2.8,80.1
			c2.8,27.1,5,54.7-1.2,81.5c-0.7,3.1,4.1,4.5,4.8,1.3c10.8-46.9-3.2-94.2-2.6-141.5c0.6-47.8,16.4-93.7,20.1-141.2
			c3.8-49.1-8.4-97.2-12.1-145.9c-1.9-24.8-0.8-49.6,0.3-74.4c1.1-24.6,1.7-49.1,1.1-73.7c-0.7-27.8-4-55.4-5.5-83.2
			c-1.6-28.8,3-56.6,8.5-84.8C-191.9,6072.7-196.7,6071.3-197.3,6074.5L-197.3,6074.5z"/>
	</g>
</g>
<g>
	<path class="st0" d="M154.3,6725.4c20.7,109,20.4,221.9-0.6,330.7c-8,41.2-18.9,81.7-27.7,122.8c-29.6,138.2-34.8,280.2-41,421.3
		c-1.5,34.3-3.1,69-12.2,102.2"/>
	<g>
		<path class="st0" d="M151.9,6726.1c11.8,62.8,16.8,126.8,14.8,190.7c-2,64.5-12.1,127.8-26.8,190.6c-7.4,31.8-15.2,63.6-21.4,95.7
			c-5.9,30.7-10.7,61.7-14.7,92.7c-8.2,63.7-12.7,127.7-16.1,191.8c-1.9,35.6-3.4,71.3-4.9,106.9c-1.6,36-2.9,72.3-12.4,107.3
			c-0.8,3.1,4,4.4,4.8,1.3c8.2-30.4,10.4-61.9,11.9-93.3c1.5-32.3,2.8-64.7,4.3-97c3.1-64.8,7.2-129.5,14.6-193.9
			c7.4-64.5,19.3-127.9,34.3-191c7.5-31.7,14.9-63.5,20.2-95.6c5.1-31.2,8.6-62.7,10.3-94.3c3.9-71.3-0.8-143-14.1-213.2
			C156.1,6721.6,151.3,6722.9,151.9,6726.1L151.9,6726.1z"/>
	</g>
</g>
<g>
	<path class="st0" d="M158.3,6733.2c-2.1-10.2-4.9-20.3-8.4-30.2"/>
	<g>
		<path class="st0" d="M160.7,6732.6c-2.2-10.2-5-20.3-8.4-30.2c-1-3-5.9-1.7-4.8,1.3c3.4,9.9,6.2,20,8.4,30.2
			C156.6,6737,161.4,6735.7,160.7,6732.6L160.7,6732.6z"/>
	</g>
</g>
<g>
	<path class="st0" d="M-200.7,6823.7c8.1,55.3,16.2,111.6,8.1,166.9c-5.8,39.4-19.6,77.1-30,115.6
		c-32.7,120.6-31.5,247.4-32.5,372.4c-0.2,27.8-0.6,55.7-5.2,83.1c-3.8,22.7-10.6,44.8-17.4,66.9c-11.8,38.4-23.5,76.8-35.3,115.2
		c-11.1,36.2-22.3,73.9-17,111.4"/>
	<g>
		<path class="st0" d="M-203.1,6824.3c5.1,34.8,10.1,69.8,11.2,105c1,34.9-3.1,68.9-11.9,102.7c-8.6,32.9-19.7,65.1-27.4,98.2
			c-7.5,32.3-12.8,65.1-16.6,98c-7.7,67.1-8.9,134.7-9.5,202.2c-0.3,34.2,0.6,68.6-2.1,102.7c-2.7,34.7-12.4,67.5-22.5,100.6
			c-10.3,33.5-20.5,67.1-30.8,100.6c-9.7,31.7-20.4,64-21.1,97.5c-0.2,8,0.3,16,1.4,23.9c0.4,3.2,5.2,1.8,4.8-1.3
			c-4.6-34.5,4.5-68.8,14.4-101.6c10.1-33.5,20.4-66.8,30.7-100.2c10.1-32.9,21.4-65.9,26-100.1c4.5-33.2,3.8-67,4-100.5
			c0.5-67.5,1-135.1,7.4-202.4c3.2-34.2,8-68.3,15-101.9c6.9-33,17-65.1,26.3-97.4c9.3-32.4,16-65.1,16.9-98.9
			c0.9-34.3-3-68.5-7.7-102.4c-1.2-8.7-2.5-17.4-3.7-26.1C-198.7,6819.8-203.6,6821.2-203.1,6824.3L-203.1,6824.3z"/>
	</g>
</g>
<g>
	<path class="st0" d="M80.1,7667.7c7.6,36.1,5.6,73.4,7.1,110.3c4.3,109.2,39,218.2,21.4,326"/>
	<g>
		<path class="st0" d="M77.7,7668.4c5.9,28.5,6,57.7,6.4,86.7c0.5,28.1,2.4,56,5.6,83.8c6.6,56.3,17.2,112.2,20.4,168.9
			c1.8,31.9,1.1,64-3.9,95.6c-0.5,3.1,4.3,4.5,4.8,1.3c18.3-114.4-19.4-227.8-21.8-342c-0.7-32-0.3-64.2-6.7-95.7
			C81.9,7663.9,77.1,7665.2,77.7,7668.4L77.7,7668.4z"/>
	</g>
</g>
<g>
	<path class="st0" d="M-325,7847.4c15.3,82.5,4.8,167.8,15.1,251.1c2.5,20.5,6.4,40.9,6,61.5c-0.3,17.8-3.7,35.3-6.9,52.8
		c-37.8,202.7-61.3,408-70.2,614"/>
	<g>
		<path class="st0" d="M-327.4,7848c11.6,63.5,8.2,128.3,10.6,192.5c0.6,15.5,1.5,31,3.1,46.4c1.6,16,4.4,32,6,48
			c1.6,15.3,1.6,30.6-0.3,45.9c-2.1,16.3-5.5,32.5-8.5,48.7c-23,125.8-40.4,252.6-52.3,379.9c-6.7,72.3-11.7,144.8-14.8,217.4
			c-0.1,3.2,4.9,3.2,5,0c5.6-129.5,16.9-258.7,34-387.2c8.5-64,18.4-127.8,29.8-191.4c5.5-30.9,13.9-62.4,13.4-94
			c-0.3-15.1-2.5-30-4.6-44.9c-2.3-16.4-3.9-32.9-4.9-49.4c-4.3-71.1,1.1-142.8-11.8-213.2C-323.2,7843.5-328,7844.9-327.4,7848
			L-327.4,7848z"/>
	</g>
</g>
<g>
	<path class="st0" d="M109.2,8102.8c0.9,88.1,1.7,176.5-8.5,264.1c-5.3,45.4-13.5,90.4-16.4,136c-3.2,51.3,0.5,102.8,4.1,154.2
		c13.5,188.7,27,377.4,40.5,566.1c2.5,35,5,70,7.5,104.9"/>
	<g>
		<path class="st0" d="M106.7,8102.8c0.8,80,1.6,160.2-6,240c-3.7,39.2-10.2,78-14.9,117.1c-4.7,39.2-6.1,78.3-4.7,117.7
			c1.4,40.4,4.8,80.7,7.7,121c2.9,39.9,5.7,79.7,8.6,119.6c5.7,79.7,11.4,159.4,17.1,239.1c6.5,90.3,12.9,180.6,19.4,270.9
			c0.2,3.2,5.2,3.2,5,0c-11.5-160.2-22.9-320.5-34.4-480.7c-5.7-80.3-12.4-160.5-17-240.9c-2.2-39.3-3.1-78.7,0.3-118
			c3.3-39.1,10-77.9,14.8-116.8c10.8-89.2,9.9-179.2,9.1-268.9C111.6,8099.6,106.6,8099.6,106.7,8102.8L106.7,8102.8z"/>
	</g>
</g>
<g>
	<path class="st0" d="M-380.9,8825.7c7.4,67,8.9,134.5,10.3,202c0.3,16.2,0.7,32.4,1,48.6c0.1,6.3,0.3,12.6-0.8,18.8
		c-1.2,7.2-4.1,14-6.9,20.8c-11.9,28.6-23.8,57.3-35.6,85.9c-22.2,53.6-44.8,108.9-44.8,166.9"/>
	<g>
		<path class="st0" d="M-383.4,8825.7c8.1,74.2,9.2,148.8,10.8,223.3c0.4,18,3.2,37.7-2.7,55c-5.8,17.1-13.7,33.7-20.6,50.4
			c-13.8,33.3-28.3,66.4-40.6,100.2c-13.3,36.6-23.4,74.8-23.6,114c0,3.2,5,3.2,5,0c0.2-71.4,33-138.2,59.8-202.8
			c7.2-17.3,14.4-34.6,21.5-51.9c3.1-7.6,5.8-15.3,6.5-23.5c0.8-8.9,0.1-17.9-0.1-26.7c-0.8-37.1-1.4-74.2-2.7-111.3
			c-1.4-42.3-3.8-84.5-8.4-126.6C-378.8,8822.5-383.8,8822.5-383.4,8825.7L-383.4,8825.7z"/>
	</g>
</g>
<g>
	<path class="st0" d="M133.4,9319.8c7.6,27.5,3.5,56.6,0.1,85c-8.7,71.7-12.5,143.9-11.5,216.1c0.3,18.8,0.8,37.6-1.6,56.3
		c-2.5,19.1-8.3,37.6-12.4,56.5c-11.7,53.5-10.1,108.8-8.5,163.5c0.9,29.4,1.7,58.8,5.6,87.9c3.6,26.6,9.6,52.8,15.7,78.9
		c6.6,28.6,13.3,57.2,19.9,85.7"/>
	<g>
		<path class="st0" d="M131,9320.4c6.9,25.8,3.9,52.6,0.7,78.7c-3.3,27.3-6.1,54.6-8.1,82c-2,27.5-3.3,55-3.9,82.6
			c-0.6,27.5,0.2,54.9,0,82.4c-0.1,14-1,27.9-3.7,41.7c-2.5,13.3-6.2,26.3-9.2,39.4c-6,25.9-9.1,52.4-10.3,78.9
			c-1.2,27.1-0.7,54.2,0.1,81.3c0.8,27.4,1.4,54.8,4.1,82c3.1,30.5,9.6,60.5,16.5,90.4c7,30.2,14,60.4,21,90.5
			c0.7,3.1,5.5,1.8,4.8-1.3c-6.2-26.7-12.4-53.4-18.6-80c-6.2-26.8-12.6-53.5-16.5-80.8c-3.9-27.6-5-55.5-5.8-83.3
			c-0.8-27.1-1.7-54.2-1.2-81.4c0.5-27.4,2.6-54.8,7.8-81.8c5.1-26.1,13.6-51.5,15.3-78.2c1.8-27.3,0-54.8,0.3-82.1
			c0.3-27.6,1.3-55.1,3-82.6c1.9-31.1,4.7-62.2,8.5-93.1c3.5-28.8,7.6-58.1-0.1-86.6C135,9316,130.2,9317.3,131,9320.4L131,9320.4z"
			/>
	</g>
</g>
<g>
	<path class="st0" d="M-459.1,9364.5c12.6,97.9,25.1,197.3,11,295c-4.1,28.6-10.5,56.9-12,85.8c-1.7,34.7,3.7,69.2,7.5,103.7
		c5.2,45.8,7.7,92.2,2.7,138c-5.3,49.1-19.2,97.4-18.3,146.8c0.6,31.2,7,62.6,1.3,93.2c-6.7,36.1-30.1,69.4-27.3,106.1"/>
	<g>
		<path class="st0" d="M-461.6,9364.5c8.3,64.9,16.6,130,17.2,195.5c0.3,33-1.4,66.1-6.1,98.8c-4.5,31.4-11.7,62.5-12.3,94.3
			c-0.7,32.8,4.4,65.3,8,97.8c3.6,32.1,5.8,64.4,5,96.6c-0.8,33-5.9,65.3-11.5,97.8c-5.4,31.1-10.4,62.5-9.2,94.2
			c0.7,17.9,2.9,35.6,3.4,53.5c0.4,17.5-1.5,34.5-6.7,51.2c-9.1,29.2-24.9,57.4-22.8,88.9c0.2,3.2,5.2,3.2,5,0
			c-1.9-28.7,11.5-54.8,20.5-81.1c4.7-13.6,7.9-27.5,8.8-41.9c1-15.9-0.4-31.8-1.7-47.6c-1.3-16-2.1-31.8-1.3-47.8
			c0.9-16.4,3-32.7,5.6-48.9c5-31.4,11.5-62.6,13.8-94.4c2.4-32.9,1.2-65.9-1.7-98.7c-2.9-32-8.2-63.8-9.8-96
			c-1.7-33,3.3-65,8.7-97.4c5.3-31.7,8.4-63.5,9.1-95.7c1.6-73.4-7.8-146.4-17.1-219C-457,9361.3-462,9361.3-461.6,9364.5
			L-461.6,9364.5z"/>
	</g>
</g>
<g>
	<path class="st0" d="M135.7,10139.6c11,54.9,6.8,111.7,1.4,167.5c-28.1,293.3-85.1,589.7-34.7,880c13.5,77.7,34.6,154.6,36.1,233.4
		"/>
	<g>
		<path class="st0" d="M133.2,10140.3c8.2,41.5,7.8,84,4.8,126.1c-3,41.9-7.7,83.6-12.3,125.3c-9.3,84-19.8,167.8-28.4,251.8
			c-8.6,83.2-15.3,166.7-17.1,250.4c-1.8,82.9,1.5,166.1,12.7,248.3c11.3,82.9,35,164,41.6,247.6c0.8,10.2,1.3,20.4,1.5,30.7
			c0.1,3.2,5.1,3.2,5,0c-1.8-83.1-24.7-163.5-38.1-245.1c-13.6-83.1-18.6-167.5-18.1-251.7c0.5-84.4,6.6-168.7,14.8-252.8
			c8.2-84.1,18.6-167.9,28.1-251.8c4.7-41.8,9.3-83.6,13.1-125.5c3.8-41.8,6.4-84,1.7-125.9c-1.1-9.6-2.6-19.2-4.4-28.7
			C137.4,10135.8,132.6,10137.1,133.2,10140.3L133.2,10140.3z"/>
	</g>
</g>
<g>
	<path class="st0" d="M-489.8,10319.4c-3.9,44,14.4,86.7,20.6,130.5c4.5,31.9,2.6,64.2,2.1,96.4c-0.7,45.1,1.6,90.3,6.8,135.1
		c5.8,50.6,15.3,101.3,12.1,152.1c-2.4,37-11.5,73.2-19.1,109.5c-16.5,78.1-26.3,157.6-29.3,237.3c-1.7,45.4-1.4,91.4-12.9,135.4"/>
	<g>
		<path class="st0" d="M-492.3,10319.4c-2.5,30.7,5.3,60.7,12.4,90.4c3.8,15.8,7.4,31.7,9.2,47.9c1.8,16.6,2.1,33.4,1.9,50.1
			c-0.4,33.1-1.3,66.1,0.1,99.3c1.5,33.4,4.7,66.5,9,99.6c4.3,32.7,8.9,65.4,9.5,98.5c0.6,33.4-4.5,66.1-11.3,98.7
			c-6.7,31.9-13.8,63.7-19.2,95.9c-5.4,32.2-9.7,64.6-12.9,97.1c-3.2,32.5-5.1,65.1-6.2,97.7c-1,32.5-1.7,65.3-7.3,97.4
			c-1.4,7.8-3,15.4-5,23.1c-0.8,3.1,4,4.4,4.8,1.3c7.9-30.8,10.3-62.6,11.5-94.3c1.3-32.7,2.1-65.4,4.7-98.1
			c5.2-66.1,15.3-131.5,29.4-196.3c6.8-31.4,13.9-63,15.9-95.2c2-33.3-1.4-66.5-5.6-99.5c-4.2-33.1-8.7-66.1-11-99.5
			c-2.3-33.3-2.9-66.7-2.1-100.1c0.7-32.8,1.5-65.5-4.7-97.9c-5.9-31.1-16.4-61.6-18.4-93.3c-0.5-7.6-0.4-15.2,0.2-22.8
			C-487,10316.2-492,10316.2-492.3,10319.4L-492.3,10319.4z"/>
	</g>
</g>
<g>
	<path class="st0" d="M97.3,11374.8c195.1,719.3,25.8,1479.8-0.4,2224.7c-13.5,385.8,11.8,771.8,37.2,1157
		c18.5,281,37,562,55.5,842.9c9,136.3,19.4,277.7,85.3,397.3"/>
	<g>
		<path class="st0" d="M94.9,11375.5c78.2,290.5,98.2,592,91.3,891.8c-6.9,301.4-39.4,601.3-64.4,901.5
			c-25.6,307.3-36.5,613.9-26.5,922.2c10.1,313.8,33.8,627.1,54.4,940.4c10.2,155.8,20.5,311.5,30.7,467.3
			c9,136.9,10.2,279.6,54,411.1c10.2,30.5,23,60,38.3,88.3c1.5,2.8,5.8,0.3,4.3-2.5c-68.6-127-76.9-273.3-86.2-414.4
			c-10.2-155.8-20.5-311.5-30.7-467.3c-20.5-311.7-44-623.4-56.7-935.6c-12.5-307.7-7.6-614.3,16.2-921.4
			c23.2-299.2,56.9-597.7,68.7-897.7c11.5-292.5,1.6-587.9-61.6-874.7c-8.1-37-17.2-73.8-27.1-110.3
			C98.9,11371.1,94,11372.4,94.9,11375.5L94.9,11375.5z"/>
	</g>
</g>
<g>
	<path class="st0" d="M-549.1,11344.8c20.6,311.8,41.1,623.6,61.7,935.4c21.5,326,43,653,24.6,979.3
		c-20.8,366.7-92.1,729.8-199.8,1080.9c-70.9,231.1-158.3,460.9-172.8,702.1c-8.2,135.7,7,272.4-7,407.7
		c-30.8,298.3-200.1,604.3-85.3,881.3c358.9,67.2,736.1,33.7,1077.5-95.7c60-314.6,67.2-639.2,21.2-956.2"/>
	<g>
		<path class="st0" d="M-551.6,11344.8c16.4,248.8,32.8,497.6,49.2,746.3c16.3,247.5,35.1,495,41.7,743
			c6.5,244.2-1.7,488.1-33.5,730.5c-31.4,238.9-82.9,475-150.4,706.3c-65.2,223.3-152.1,442.5-183.8,674.1
			c-15.9,116.5-11,233-10.5,350.1c0.5,116-13,228-39.4,340.8c-46,196.9-122.7,404.8-79.1,609.1c5.2,24.3,12.1,48.2,20.8,71.4
			c1.2,3.2,3.8,14.4,7.1,17c6.2,5.1,29.3,5.6,36.8,6.8c52.7,8.9,105.8,15.6,159.1,20.1c113.7,9.8,228.2,9.8,341.8,0.2
			c109.4-9.2,218-27.3,324.4-54.1c56-14.1,111.5-30.7,166.1-49.6c12.9-4.5,25.8-9.1,38.7-13.9c4.5-1.7,11.3-2.1,14.3-6
			c5.3-6.9,4.9-25.3,6.4-33.7c3.1-17.3,6-34.7,8.8-52.1c37.2-232.7,45.8-469.9,25.7-704.6c-4.8-56.1-11.4-112-19.4-167.7
			c-0.5-3.2-5.3-1.8-4.8,1.3c33.6,234.5,38.9,472.7,14.8,708.4c-6.2,60.3-14.2,120.4-24.2,180.2c-2.5,15.2-3.7,32.6-8.3,47.3
			c-5.3,16.9-11.4,20.8-27.5,26.7c-27.2,9.9-54.6,19.1-82.1,27.8c-105.9,33.3-214.7,57.6-324.7,72.9
			c-112.8,15.7-226.9,21.8-340.7,18.2c-56.3-1.7-112.4-5.9-168.3-12.3c-28.5-3.3-56.9-7.2-85.2-11.8c-11.7-1.9-29.8-2-40.5-6.9
			c-14.3-6.6-17.2-25.5-21.6-39.3c-65.1-204.4,9.6-420.9,58.3-620.3c24.8-101.6,44-203.4,47-308.2c3.4-117.7-6.3-235.5,3.9-353
			c19.9-229.2,101.8-446.4,169-664.6c137.1-445.7,210.4-906.3,208.2-1372.8c-1.1-241.1-17.6-481.8-33.5-722.3
			c-16-242.1-31.9-484.3-47.9-726.4c-3.9-59.7-7.9-119.4-11.8-179.1C-546.9,11341.6-551.9,11341.6-551.6,11344.8L-551.6,11344.8z"/>
	</g>
</g>
<g>
	<path class="st0" d="M124.5,15311.5"/>
	<g>
		<path class="st0" d="M124.5,15314c3.2,0,3.2-5,0-5C121.3,15309,121.3,15314,124.5,15314L124.5,15314z"/>
	</g>
</g>
</svg>
