<?xml version="1.0" encoding="utf-8"?>
<!-- Generator: Adobe Illustrator 22.0.1, SVG Export Plug-In . SVG Version: 6.00 Build 0)  -->
<svg version="1.0" xmlns="http://www.w3.org/2000/svg" xmlns:xlink="http://www.w3.org/1999/xlink" x="0px" y="0px"
	 viewBox="0 0 686 5000.8" style="enable-background:new 0 0 686 5000.8;" xml:space="preserve">
<style type="text/css">
	.st0{fill:#6F4E3E;}
	.st1{fill:#977565;}
	.st2{fill:#66A058;}
</style>
<g id="Layer_1">
	<g>
		<path class="st0" d="M356.8,462.5c4.2-0.8,6.2-4.4,8.5-7.2c2.6-3.1,5.3-6.1,8.1-9.1s5.6-5.8,8.5-8.7c2.8-4.7,5.5-10.7,8.3-8.3
			c2.9-5.3,5.9-5.2,9.4-7c2,9.9,4.1-5.3,6.1-3.4c2.1-3.2,4.1,8.3,6.2-3.2c2.1-8.1,4.2,3,6.3-3.1c1.1-3.5,2.1-0.6,3.2,0.1
			c1.1-0.1,2.1-8.4,3.2-2.9c1.1-9.1,2.3,5.5,3.4,5.3c1.1,0.8,2,1.7,2.5-3.1c0.5,6.4,0.7,2.5,0.4,0.9c-0.3-2.4-1,6.4-2.2,5.2
			c-0.8-2.9-1.5-3.3-2.3-2.4c-0.7,3.3-1.5,4.9-2.3,5.1c-2.5-1.8-6,5.4-5.5,6c0.2,8.6-2.1,1.5-3.6,3.8c-2-2.8-4,7.9-6,4.6
			c-2-2.1-3.9,3.6-5.8,4c-3.8,3.7-7.4,5.4-10.9,9.5c-3.5,3.3-6.8,6.8-10,10.5c-3.2,3.7-6.1,7.5-9,11.5c-3.4,4.9-7.1,10.2-8.8,15.4
			c-1.9,6.1-4.6,12-6,18.4c-1,4.7-3.6,9-5.5,13.5c-5.8,13.8-10.3,27.9-11.5,43c-0.9,11-2,22-1.8,33.1c0.1,7.4-0.3,14.8,1.9,22.1
			c2.3,7.9-0.4,16,0.1,24c0.2,4.2-0.4,8.5,2.8,12.1c1.4,1.6,1.2,3.6,1.2,5.7c0,39.5,0.1,79-0.2,118.5c0,5.9-0.6,11.9-0.9,17.8
			c-0.3,5.8,1.8,10.7,4,15.8c3.6,8.4,6,16.8,4.5,26.5c-1.2,7.4,7.1,3950,9.5,3957.7c1,3.4,0.4,7.3,0.3,10.9
			c-0.1,2.3,0.3,3.7,3.2,3.5c5.2-0.4,9.3,1.6,11.9,6.2c1.3,2.3,4,2,5.9,3.1c5.6,3.1,8.3,9,12.9,13.1c5.3,4.9,9.8,10.4,16.5,13.7
			c6.4,3.1,13.3,5.8,17,12.6c3.1,5.8,9.3,8.5,13.3,13c6.3,6.9,14.7,7.9,22.2,11.2c2,0.9,3.8,1.9,5.3,3.5c1.5,1.6,1.3,3.5,0.6,5.1
			c-0.6,1.5-2,2.5-3.9,2.5c-3.7-0.1-7.4,0.4-11-0.1c-7.3-1-13.9,1.5-20.6,3.6c-5.4,1.8-10.3,2.7-15.3-1c-1-0.8-2.9-0.6-4.3-0.5
			c-8.4,0.4-16.7-1.1-25-2.2c-3.7-0.5-7.7-2-10.8-4.1c-4.6-3.2-9.3-2.3-14-1.5c-9.7,1.6-19.2,2.6-25.9-7.3c-1.7,2-3.1,3.7-4.4,5.5
			c-5.8,8-15.1,9-22.3,2.2c-0.8-0.8-1.3-1.9-2.1-2.7c-7.2-8.3-13-10.1-19.6-0.3c-6.7,10-16.6,12.7-27.4,13.4
			c-5.1,0.3-9-2.9-10.8-7.8c-1.2-3.3-2.3-3.7-5.7-2.1c-8.5,4-15.7,10.5-25.2,12.4c-10.9,2.1-21.9,2.5-32.8,0.3
			c-2.1-0.4-4.9-0.9-5.5-4.1c-0.5-3,1.2-5.1,3.3-6.1c4.7-2.3,6.7-7,10.2-10.3c0.7-0.7,1.4-1.7,2.2-1.9c6-1.4,10.9-4.7,15.4-8.8
			c5.7-5.2,12.6-8.7,19-12.8c7.3-4.7,11.4-12.1,15.7-19.2c6.9-11.2,12.4-23.2,16.7-35.6c2.3-6.7-6.3-3949-5.9-3956.1
			c1.1-18.4,2.2-36.7,4.9-54.9c1.2-8.1,1.9-16.4,2-24.5c0.3-17.4,2.5-34.9,1-52.3c-1-12.3-0.3-24.5-0.9-36.8
			c-0.4-9.5,2.7-18.5,3.3-27.8c0.8-11.9,3.4-23.6,4.9-35.4c3.1-24.1,2.5-48.2,3-72.4c0.2-8.4,2.4-16.7,3.9-25.1
			c1.5-8.7,2.1-17.5,3.8-26.1c2.4-12.3,3.2-24.8,3.3-37.3c0-5.6-0.8-10.8-3.4-15.6c-5-9.1-5.8-19.3-7.5-29.1
			c-2.4-13.5-6.7-26.3-11.5-39.1c-4.4-11.5-12-20.6-20.2-29.3c-2.9-3.1-5.5-6.5-7.9-10c-1.8-2.6-0.1-6.3,3-6.9
			c6.4-1.3,7.5-3.1,6.4-9.2c-1.7-9.4-2-19-2-28.6c0-2.2,1.2-3.6,2.9-4.1c1.7-0.5,3.4-0.2,5,1.1c4.2,3.5,3.3,8.5,3.8,12.8
			c1.6,12,4.9,23.3,10.7,33.9c3.5,6.3,4.7,13.3,6.9,20c2.8,8.3,9.4,14.3,13.2,22c1.2,2.3,1.8,5.3,5.2,7.6
			c-0.5-7.5,2.2-14.2,0.7-21.2c-0.4-2-0.5-3.9-0.5-5.9c-0.2-9.3,0.2-18.6-2.8-27.8c-2.2-6.6-1-13.8-1.3-20.7
			c-0.3-9.2,1.3-18.4-1.8-27.5c-1.4-4.1-3.7-7.5-6.1-11c-3-4.4-5.9-9.2-10.2-12.3c-1.9-1.4-4.1-2.4-6.4-3.4
			c-2.3,0.3-4.6-1.8-6.8-2.8c-17.1-7.7-35.4-11.2-53.3-16.3c-9.7-2.8-19.6-5.9-28.7-10.2c-6.7-3.2-14.2-5.4-19.8-11.3
			c-3.5-3.7-3.4-7.3-2.3-11.2c1-3.4,4.8-4.3,8.1-1.6c6,4.9,13.1,7.1,20.1,9.5c10.7,3.6,21.7,6.4,32.6,9.2c7.9,2,16,3.5,23.9,5.8
			c3.9,1.1,7.8,3.8,11.6,4.2c0.3-6,0.9,0.5,1.7,0.6c-0.3-5.2-0.6-3.5-0.9-1.3c-1.3-3.6-2.7-6.1-3.8-8.3c-1.1,5.6-2-3.8-2.4-8.9
			c-0.2,1-1.6-3.6-2.9-5c-6.3-7.1-12.7-14-19-21.1c-2.9-3.2-4.3-7.2-4.6-11.6c-0.1-2.2,0.3-4.2,2.3-5.1c1.9-0.8,4-1,6.1,0.4
			c6.3,4.2,10.8,10.1,15,16.1c2,2.8,3.8,2.3,5.5,8.9c1.8,5.4,3.5,6.9,5.5,8.9c2.5-4.9,5.7,13.7,9.1,8.8c3.4-1.2,6.9,12.1,10,8
			c2.1,2.9,4.1,11.1,6.3,6.3c2.1-1.3,4.3,6.8,6.6,6c2.6-1.9,5.3,4.1,8.1,6c2.8,1.9,5.7,3.7,8.6,5.4c5.5,3.2,9.1,8.5,11.1,14.9
			c1.1,3.6,1.5,8.1,6.1,10c4.5-14.4,6.7-29,8.9-43.8c1.3-8.5,6-16,11.1-23c2.3-3.2,5.1-6,7.8-8.9c2-2.1,4.4-2.2,6.5-0.1
			c2.1,2,2.1,4.5,0,6.5c-1.4,1.3-3.2,2.3-4.4,3.9c3.1,1.6,4.8-0.1,6.3-1c9.6-6.1,19.7-10.8,30.8-14c8.3-2.5,16.3-6.5,23.9-10.8
			c6.4-3.7,13.5-4.5,20.2-6.6c7.3-2.2,12.9-7.1,18.9-11.3c3.2-2.3,6-4.4,9.4-1c2.5,2.5,0.8,6.9-3.3,10c-9.1,7-19.3,11.8-30.3,15.2
			c-1.5,0.5-3.2,0.7-4.1,2.8c14.2-0.2,27.8,4.2,41.9,3.2c6.8-0.5,12.7-2.6,18.3-6.6c4-2.8,9.2-3.7,13.6-6.4c1.6-1,3.7,0.2,4.8,1.6
			c1.3,1.7,1.7,3.9,0.8,6.1c-1.3,3.1-3.8,4.8-6.4,6.9c-6.1,5-12.6,7.3-20.5,8.6c-8.6,1.4-17.2,1.9-25.8,2c-4.3,0-8.6,0-12.9-0.1
			c-4.3-3.6-8.6,3.2-12.9-0.5c-4.6-0.9-9.1,1.9-13.4,0.7c-4.3,0.7-8.6,4.9-12.8,2.8c-4.2,0.5-8.4,2.6-12.5,4
			c-5.2,1.8-7.7,6.1-9.6,11c-3.6,9.5-7.4,19-10.9,28.5c-1.7,4.7-3,9.6-4.6,14.3c-1.4,3.9,0.8,7.4,1.2,11c0.2,2,1.7,3.8,2.3,5.9
			c1.8,6.5,1.7,6.5,6.8,2.8c7.4-5.3,13.7-11.5,19.3-18.3c2.8-3.4,5.4-3.6,7.9-10.6c2.5-8.6,4.9,0.3,7.2-11.2
			c1.5-0.4,3.9-5.5,6.4-2.3c2.8,0.2,4.9,6.8,3.2,7.4c-1.9,9.3-3.7,8.5-5.4,11.2c-1.8,8.3-3.5,2.8-5.5,11.2c-2,8.1-4.2,7.2-6.8,10.4
			c-8.4,10.4-15.6,21.4-19.8,34.3c-0.9,2.7-2,5.4-3.4,8c-2.7,4.8-4.2,9.4-2.9,15.3c1.3,5.7-2.3,11.5-1.7,17.5
			c0.1,1.4-0.8,3.4,0.7,4.1c1.9,0.8,2-1.6,2.8-2.6c6.8-8.8,15.9-14,25.9-18.2c8.5-3.6,16.8-7.5,24.9-11.8c5.6-3,11.6-4.9,17.6-6.8
			c2.5-0.8,5.6-0.7,6.8,2.4c1.2,3.2-1.2,4.8-3.8,5.9c-18.4,7.8-35.3,18.6-52.6,28.5c-8.1,4.6-14.4,11.3-20.9,18
			c-5.8,5.9-4.3,12-5.2,17.9c-2.2,14.6-4.7,29.1-4.6,44c0.1,10-2.5,20-3.9,30c-2.6-1.5-3.8-0.2-3.8,2.3c-0.1,5.7,0,11.5,0,17.2
			c0,1.4,0.1,2.9,1.7,3.2c1.7,0.3,2.1-1.3,2.7-2.4c2.5-4.8,4.8-9.8,7.6-14.4c1.2-2,3.5-4.1,0.9-5.9c-2.6-1.8-3.3,1.6-4.4,3.2
			c-1,1.5-1.6,4-3.6,3.3C355.9,466.4,357.1,464,356.8,462.5z M334.8,844.5c-2.6-10-3.4-19.8-3-29.8c0.1-2.6-0.7-4.9-3.6-4.9
			c-2.2,0-3.4,1.9-3.3,4.2c0.5,18.6,8.1,3972.1,10.2,3990.7c0.2,2.1-0.4,3.4-2.1,4.6c-1.7,1.1-2.3,2.6-0.9,4.7
			c1.3,2,1.7,4.8,3.3,6.5c2.3,2.4,2.1,7,5.7,7.7c7.8,1.5,14.2,6,21.4,8.8c3.8,1.5,7.9,2.4,12.1,2.4c2.9,0,4.7-1.8,5.3-4.4
			c0.6-2.5-1.2-3.8-3.4-4.7c-4.6-1.9-9.1-3.8-13.5-6c-5.1-2.6-10.5-6.4-11.5-11.7c-1.5-8-2.4-16.3-0.7-24.7
			c1-4.6-9-3944.5-9.1-3949.3c0-2.2-1.3-4-3.7-3.8c-2,0.1-3.1,1.8-3.2,3.8C334.8,840.6,334.8,842.5,334.8,844.5z M289.1,4789.2
			c0-1.3,0.1-2.6,0-3.9c-0.2-2.3-9.8-3940.5-12.5-3940.2c-3,0.4,8,3938.2,8.2,3940.2c0.3,3.6,1.7,7.9-0.7,10.6
			c-2.6,3-2.2,5.6-1.5,8.7c0.4,1.5,0.8,3.1,0,4.4c-3.1,4.6-5.1,9.9-9.2,14c-4.2,4.1-9.8,6.9-12.8,12.3c-0.8,1.5-2.4,2.7-0.7,4.3
			c1.7,1.6,2.6-0.3,3.7-1.2c7.2-6.4,14-13.2,21.5-19.3c7.4-6,9.9-13.9,10-22.8c0.1-14.8-9.1-3964.6-9.4-3979.4
			c-0.1-5.3-1-10.5-1.7-15.7c-0.2-1.5-0.3-3.8-2.8-3.1c-1.7,0.5-1.6,2.4-1.2,3.9c1.5,4.8,1,9.9,1.5,14.8
			C282.9,829.3,290.1,4776.8,289.1,4789.2z"/>
		<path class="st1" d="M356.8,462.5c0.3,1.5-0.9,3.9,0.9,4.5c2,0.6,2.7-1.9,3.6-3.3c1.1-1.6,1.8-5,4.4-3.2c2.6,1.7,0.3,3.8-0.9,5.9
			c-2.8,4.7-5.1,9.6-7.6,14.4c-0.6,1.1-0.9,2.8-2.7,2.4c-1.6-0.3-1.7-1.8-1.7-3.2c0-5.7-0.1-11.5,0-17.2c0-2.5,1.2-3.8,3.8-2.3
			C356.7,461.1,356.8,461.8,356.8,462.5z"/>
		<path class="st1" d="M334.8,844.5c0-2-0.1-3.9,0-5.9c0.1-2.1,1.2-3.7,3.2-3.8c2.4-0.2,3.6,1.6,3.7,3.8
			c0.1,4.8,10.1,3944.7,9.1,3949.3c-1.8,8.4-0.8,16.7,0.7,24.7c1,5.3,6.4,9.1,11.5,11.7c4.4,2.3,8.9,4.2,13.5,6
			c2.2,0.9,4.1,2.2,3.4,4.7c-0.6,2.6-2.5,4.4-5.3,4.4c-4.2,0-8.2-0.9-12.1-2.4c-7.2-2.8-13.6-7.3-21.4-8.8c-3.7-0.7-3.5-5.3-5.7-7.7
			c-1.6-1.7-2-4.5-3.3-6.5c-1.4-2.1-0.8-3.5,0.9-4.7c1.7-1.2,2.3-2.5,2.1-4.6c-2.1-18.6-9.7-3972.1-10.2-3990.7
			c-0.1-2.3,1.1-4.2,3.3-4.2c2.9,0,3.7,2.3,3.6,4.9C331.4,824.7,332.2,834.6,334.8,844.5z"/>
		<path class="st1" d="M289.1,4789.2c0.9-12.4-6.3-3959.9-7.5-3972.5c-0.5-4.9,0-9.9-1.5-14.8c-0.5-1.5-0.6-3.4,1.2-3.9
			c2.5-0.7,2.6,1.7,2.8,3.1c0.7,5.2,1.6,10.5,1.7,15.7c0.2,14.8,9.5,3964.6,9.4,3979.4c-0.1,8.9-2.6,16.8-10,22.8
			c-7.5,6.1-14.3,12.8-21.5,19.3c-1,0.9-1.9,2.8-3.7,1.2c-1.7-1.6-0.1-2.8,0.7-4.3c3-5.5,8.6-8.2,12.8-12.3c4.2-4.1,6.1-9.3,9.2-14
			c0.8-1.2,0.4-2.9,0-4.4c-0.8-3.1-1.1-5.7,1.5-8.7c2.4-2.8,1-7,0.7-10.6c-0.2-2.1-11.2-3939.9-8.2-3940.2
			c2.7-0.3,12.3,3937.8,12.5,3940.2C289.2,4786.6,289.1,4787.9,289.1,4789.2z"/>
	</g>
</g>
<g id="Layer_3">
</g>
<g id="Layer_2">
	<g>
		<path class="st2" d="M477.1,224.9c0-5.8-11.5-10.6-27.8-12.6c-5.4-0.7-11.3,7.6-17.7-1c-6.3,0.1-12.2,4.2-17.6,1.2
			c-5.4,5.7-10.3,9-14.4,3.1c-2,2.1-3.9,1.8-5.5,1.7c-2.4,0.3-4.5,0.7-4.2,2.8c-2.3,1.7-3.5,3.5-3.5,5.4c0,1.9,1.3,3.7,3.6,5.4
			c2.3-0.6,5.7,13.2,9.7,4.4c4.1,3.2,9,0.4,14.4,2.9c5.5,8.3,11.4-2.1,17.7,1c6.3,8.5,12.2-0.5,17.6-1.2
			C465.7,235.7,477.1,230.7,477.1,224.9z"/>
		<path class="st2" d="M672.9,193.2c0,1.2-0.2-4.6-0.6-5.9c-0.4,4.2-0.9-0.6-1.7-5.7c-0.8-9.2-1.7-9-2.7-5.4
			c-1.1-5.5-2.3-0.8-3.7-5.2c-1.4,3.6-2.9-0.5-4.6-5c-1.7-1.3-3.5,1.8-5.5-4.3c-2-4.2-4-0.3-6.2-4.1c-1.1-2.3-2.2,0.3-3.4,1.4
			c-1.2-6.4-2.4-4.8-3.6-5c-1.1,11.5-2.4,2.5-3.7,1.7c-1.3-7.7-2.6-6.1-3.9-3.8c-1.3,3.3-2.6,2.2-4.1-6.2c-1.4-5.5-2.8-0.1-4.1,2.4
			c-1.4,0.1-2.9-5.2-4.3-4.4c-1.5-0.1-3-10.2-4.4,3c-1.5-2.1-3,1.3-4.5,0.8c-1.5,9.4-3.1-0.6-4.7-3.2c-1.5,6.3-3.1,6.1-4.7,1.4
			c-1.6-2.6-3.2,2.5-4.8-2.3c-1.6,0.3-3.3-1.8-4.9-1.4s-3.3,1.3-5,1.1c-2.9-2.1-5.7,2.6-8.6,0.3c-1.4-5.6-2.8-5.6-4.2-6.1
			c-1.4-0.4-2.8,1.3-4.1,6.9c-2.7-1.5-5.4,6.4-8.1-0.9c-2.6-0.2-5.2,0.3-7.7,3.9c-5-2.8-9.8,3.2-14.3,4.6c-4.5-2.5-8.7-0.2-12.5,6.1
			c-3.8,2.3-7.3,4.7-10.3,7.4c-3,2.7-5.7,5.5-7.9,8.5c-0.6,0-1.1,0-1.7,0.1c3.6-2.5,5.8-5.9,5.7-9.6c0-2.3,0.5-5.2-2.4-6.4
			c1.9-3.7-1.2-4.9-6.4-4.8c-4.3,1.3,5.5-4.8,3.5-5c1-1.7,1.8-3.5,2.5-5.2c13.4-2.4,23.2-10,23.2-18.9c0-4.9-3-9.3-7.9-12.7
			c4-2.3,6.3-5.1,6.3-8c0-2.8-2.1-5.3-5.7-7.5c-3.6-1.5-8.8-6.9-14.9-5.3c-3.1,0.5-6.4,1-9.9,0.5c-3.5-2.4-7.2,1.7-11-2.4
			c-2.5,1.9-4.9,0.8-7.3,0.4c-2.3,4.4-4.6,4.7-6.9,0.6c-1.1-1.6-2.2-3.1-3.3-3.5c-1.1-0.4-2.1,0.4-3.1,3.3c-2,5.2-4-8.1-5.7,2.7
			c-2.6-10.9-5.1,5.2-7.8-1.5c-2.6,1.8-5.4-3.8-8.1-1.1c0.4-2.3,0.7,4.2,0.7-4.4c1.4-5.9-0.1-3.4-0.1-1.8c1.5-3.2,3-2.3,4.2-4.2
			c-0.8-3.7,2.3-3.8,3.1-5.6c4.6-3.8,1.6,2.9,2-4.5c-4.7,1.8,1.8-1.1,0.7-7c-3-3.9,3.5-0.5-0.8-3.7c-8,1.3-2.3-5.5-2.4-8.7
			c-1.9-1.4,4.9-7.5-3.7-5.4c-1.9-1.5-3.3-3.2-4.9-4.7c-3.9-1.1-2.5-4.9-8.1-5c-3-1.4-6.2-2.4-9.5-3.2c-3.4-0.7-6.9-1.1-10.6-1.1
			c-5.9-4.5-11.4,1.5-16.4,2.9c-4.9,12.5-9.4,2.5-13.1,7.8c-3.6,8.1-6.4,5.5-8.2,11.3c-3-4.4-6-0.3-9-0.3c-1.5-4.2-3.9-9.3-6.9-13.3
			c-4.6-6-10.7-11-17.8-14.5c-3.6-1.7-7.4-3.1-11.4-4c-4,0.1-8.3-7.1-12.6-1.4c-1.8,6.5-3.6,5.4-5.4,0.3c-1.8,2.9-3.6-3.7-5.3,0.8
			c-1.7,3.3-3.4,4.8-5.1,3.1c-1.6,4.1-3.2,6.2-4.9-0.1c-1.6-5.4-3.1-4.5-4.6-3.2c-1.4,6.7-2.9,5.9-4.3,8c-2,4.8-4,3.1-5.8,4.5
			c-1.8,2.3-3.5,1.7-5,5.3c-2.1-2.8-4.4-6-6.9-1.4c-1.9,3.8-3.8-6.8-5.4,1.1c-1.7-5.8-3.2-1.8-4.4,2.2c-1.3-1.7-2.3-0.4-3,2.5
			c-0.7-1.6-1.1,5-1.1,5.3c0-2.9,0.1,8.4,0.1,1.2c-4.2-1.1-8.7-0.2-13.4-2.3c-4.6-0.4-9.5,0.4-14.4-0.8c-6.3,0-12.3,0.5-18.1,1.4
			s-11.2,2.2-16.3,3.8c-5.1-0.8-9.7,2.9-13.8,5.9c-2,5.4-4,3.2-5.8,1.7c-1.8-1.5-3.4-2.3-4.9,5.9c-2-9.5-4-10.5-6-0.2
			c-2,9.1-4.1-7.9-6.1-0.1c-2.6-7.8-5.2-5.5-7.8-8.6c-2.5,6.6-5,4.5-7.5-0.1c-2.4,6.9-4.9-1.2-7.3,10.1c-3.6,3-7.2,0-10.6,1.6
			c-3.5-0.1-6.8,1.3-10.1,2.1c-6.5,1.6-12.7,3.5-18.3,5.8c-5.6,2.2-10.7,3.3-15.2,7.5c-4.4,12.4-8.4,8.9-11.6,9
			c-3.2,6.7-5.7-3.1-7.4,10.2c-1.7,1.5-2.5,10.5-2.5,11.1c0,3.8,0.9,8.6,2.4,10.5c1.6,8.3,3.9,2.1,6.8,9.7c3,3.7,6.6,5.4,10.7,8.6
			c2.1,1.3,4.3,2.6,6.7,3.8c2.4,1.2,4.8,2.4,7.4,3.5c2.6,0.8,5.3,2.1,8.2,3.1c2.8,1,5.8,1.8,8.8,2.6c-0.2,1.1-0.3,2.3-0.3,3.5
			c0,0.2,0,0.4,0,0.6c-3.1,0.3-6.2,4.4-9.1,1.3c-3,1.3-5.8-1.4-8.6,2c-2.8,1.2-5.4,7.2-7.9,2.1c-2.5,7.1-4.9-1-7.2,3.7
			c-2.3-4.6-4.4,0.3-6.4,0.3c-0.9,9.5-1.9,2.1-2.8,5.9c-0.9-0.1-1.8-0.9-2.6,1.5c-1.6,2.9-3.1,5.4-4.3,7.2c-0.7-4-1.3-4-1.8-2.8
			c-0.5-0.8-1,1.9-1.5,4.8c-0.9,4.4-1.5,9.3-2,4.5c-0.2,5.5-0.4-3.3-0.5-2.6c-0.1-1.5-0.1-2.1-0.1-0.9c0,1.1,0,4,0,9.5
			c0,4.4,0.1,0.1,0.2-0.3c0.1-3.4,0.2-1.8,0.3,0.8c0.1,0.7,0.2,0.9,0.4,7.1c0.6-5.1,1.5,4.6,2.6,4.2c0.6,5.3,1.2-4.3,1.9,6.3
			c0.7,3.9,1.4,1.7,2.2-3.2c1.6,4.5,3.5,2.1,5.5,7c-1.7-11-3.3-0.9-4.8-0.8c-0.8-4.9-1.6-7.8-2.4-4.2c-0.8,1-1.6-3.5-2.3,5.4
			c-1.5,4.5-3,6.6-4.5,2.6c-1.5,4-2.9,4.1-4.3,1.3c-1.4-3.6-2.8,1.5-4.1,1.2c-1.4-8.3-2.7-3.2-3.9,1.6c-1.3,1.4-2.5,7.7-3.7,5.6
			c-1.2-3-2.4-3.2-3.5-2.5c-2.3-5.1-4.4-8.8-6.3,3.4c-2-2.9-3.7,1.3-5.4,3.7c-3.2,6.5-5.7,5.2-7.5,8c-1.7,2.8-2.6,5.7-2.6,8.8
			c0,3.3,1.1,6.5,3.2,9.6c2.1,3,5.2,7.2,9,8.6c3.9-1.8,8.6,4.7,14,7.3c5.4,5,11.5,8.9,18.1,5.7c2.1,1.1,4.8,2.1,8.1,3
			c3.3,0.9,7.2,1.7,11.5,2.4c4.4,6,9-7.7,14.2,1.5c2.5-8.1,5.2,6.7,7.9,0.4c2.7,1.5,5.4-3.6,8.2,0.1c1.4,3.4,2.8,13.3,4.1,5.9
			c1.3-4.2,2.7-0.5,3.9-6.1c1.3-1.7,2.6,6.5,3.9,2.7c1.2-5.5,2.5-1.7,3.8-3.2c0.2,7,0.6,7.7,1.2,7.4c0.6,6,1.4,0.1,2.3-1.1
			c1.9-2.2,4.6,13.2,7.7,5.5c-1.7,1.1-3.3,1.7-4.6,2.7c-1.3,0.9-2.5,2.1-3.4,4.2c-0.9,9.1-1.7,0.6-2.1,8.7c-0.5,3.1-0.7,3.5-0.7-0.9
			c0-0.7,0.4,4.7,1.2,4.9c-3.6-8.4-7-11.1-10.3-2.7c-3.3,1.3-6.5,2.4-9.5,4.4c-3,8.1-5.9-6.1-8.5,1.4c-2.7-2.1-5.1,5.2-7.4,1.7
			c-4.5,3.6-8.1,7.6-10.6,4.3c-2.5,1.6-3.8,3.3-3.8,5.1c0,1.9,1.6,3.8,4.6,5.4c2.9-4.6,7.2,2.7,12.4,4.4c5.3,8.6,11.5,5.7,18.4,2.9
			c3.4-3.2,7.1,5.5,10.9,1.6c3.8,0.5,7.7,0.5,11.7-0.7c2.7,0,5.3-0.1,7.9-0.2c5.6-1.7,3,0.9,7.6-0.4c4.6-1.3,6.3-1.1,7.7-0.9
			s0.8,1.4,6.2-0.6c3.7-1.2,6.5-1.9,5.9-0.9c8.5-3.8-6,4.3,5.9-1.4c2.1-0.6,4.2-1.3,4.2-1c4.4-2.2,8.8-4.3,7.9-3.7
			c-1.2,0.8,6.3-3.1-3,1.8c-1.2,1.2-8.2,5.4,3.1,0c-0.1,0.9,9-3,5.1-0.1c-3.4,2.2,4-1.3,5.5-1.7c2-0.6,0.1,0.7-5.9,4.2
			c5.3-2,9.6-3.6,4.8-0.4c1.7-0.5,7.9-3.5,1.5,0.2c-4,2.4,0,0.6,8.5-3.5c13-5.6,5.6-0.8,4.3,0.8c-6.9,4,1.8-0.1,3.5-0.6
			c-1.8,1.1,10.5-5.2,2.9-1c3.2-1.5-1.5,1.1,6.4-2.9c-2.2,1.3-8.2,4.5-5.6,3.3c-0.3,0.3,1.9-0.7,4.9-2.2c-0.2,0.3-5.3,3.1,8-3.7
			c-0.9,0.7,0.5,0,6.2-3c-2,1-1.9,0.8-0.6,0s4-2.4,6.5-3.9c0.5-0.7-4.5,1.3,2.9-3.3c1.3-1.4-6.7,1.8-0.7-2.4
			c-2.7,0.3,1.4-3.1,3.9-5.8c-9.6,2.5-0.8-4.8-2.4-7c9.5-6.5,2.8-4.5-2.2-3.6c-5.3,1.1-8.7,1.2-4.4-2.7c-4,3.1,11.9-4.3,5.5,0
			c-0.5,2.2,10.3-1.7,12.1-0.9c0.9,1.2,3.8,1.2,9-0.2c-1,1.9,8.4-1.8,12.2-2.8c-2.5,2.3,5.1-0.8,5,0c7.5-3.2-0.1,1.3,3.1-0.1
			c2.7-1.1-2.7,1.9,8.5-4c1.1-0.7,0.8-1.4,4.2-4.9c-6,2.3,1-2.4-0.2-3c7.3-5,2.6-3.9-4.1-1.8c-13.3,5.5-5-0.4-7.5-0.8
			c2.3-2.9-6-0.3-4.2-3.1c-3.2-0.2-4.3-1.5-8.8-1.1c-4.2,0.2-1.9-2.9-8.4-1.5c-4.3,0.3-0.8-3.6-7.9-1.8c2.7-3.4-6.1-0.8-13.1,1
			c-1.8,0-3.6,0-5.4,0.1c-1.8,0.1-3.5,0.1-5.2,0.2c-7.8-6.3-22.8-11-40.9-12.3c4.8-4.5,7.4-9.4,7.4-14.5c0-3.7-1.5-7.4-4.1-10.7
			c0.2-2.5-8.1-0.6-3.2-5.8c-2.9,0.2-4.2-0.4-5.6-1c4.4-3.6,0.3-2.8-2.5-2.7c-2.7,0.1-7.1,1-6.9-0.5c-7.4,3.2-4,0.7-6.3,1.2
			c-3.6,1.2,0.4-1.6-0.1-2c0.5-1.6,0.7-3.2-1.9-3.3c3.4-3.2-9.2,2-2.2-3.1c-3.7,2,2.4-1.2,1.6-0.9c5.7-3,10-5.4,6.5-3.6
			c-5.8,2.9,10.4-5.7,4.5-2.9c2.2-1.4,0.1-0.5-0.7-0.4c5.8-3.6,2-2.4,2.7-3.6c3.8-2.9-12.4,4.5,5.1-5.8c-2.4,0.6-2.8,0.2-2.5-0.6
			c2.2-1.8,1.9-2.4,5.4-5c3.5-2.6,3.3-3.3,2.4-3.6c-0.7-0.5,3.3-3.5-2.6-1.3c1.4-0.9,6.6-3.7,0-0.3c6.1-2.6,6.3-2.2,2.8,0.1
			c3.4-1.3,6-2.1,6.4-1.9c-4.6,2.8,11.1-4.9,8.6-3.2c-3.1,2,7.2-3-2.8,2.6c8.2-3.9,7.9-3.4,7.9-3.1c0.2,0.2-0.5,0.8,1.8-0.1
			c7-3.4,6.8-3.1,7.8-3.4c1.4-0.5-2.3,1.6-4.3,2.7c5.8-2.7,9-4.2,5.9-2.5c4-2-2.6,1.4,5.4-2.9c9.3-3.8,5.5-0.7,3.8,1.3
			c0.5,0.9,5.7-0.6,5.9,0.6c3.7-5-1.9,3.5,6.4,0.5c-2.2,0.6,4.6-5.8,7,0.2c2.4,0.3,4.7,1.8,6.9-0.2c2.2-4.9,4.3,4.9,6.2-0.6
			c1.9,6.9,3.8-5,5.5-0.9c1.7-5.6,3.1,0.5,4.2-1c6.2,6.3,5,5.8,6.7,3.5c2.2,4.6,3.6,1.9-2,5.5c-5.6,5-6.7,13.5-5.3,7.6
			c1.4,6.9,5.4,10.3,9.8,0.4c5.1-0.8,4.9,1.3,6.3,2.5c9-2.7,1.1,3.4,5.4,3.1c9.7-3.1,9.6-1.2,10.1,0.4c-0.2,1.9,8.5-0.9,6.4,1.7
			c0,1.4,3.1,1,6.5,0.2s10.6-3.8,8.4-2c-0.1,0.7-0.2,1.1,4.8-1.3c8.3-4.1,7-3.5,6.5-3.4c1.9-1.2,5.6-3.6,5.2-4
			c3-2.2,8.6-5.9,0.6-2.8c1.5,0.5,7.4-1.4,4.3,1.4c0.2,0.5,1.2,0.5,3,0.1c1.8-0.4,2.9-0.5,7.8-2.5c0.2,0.9,10.7-3.6,6.4-0.5
			c1.2,0.2-1,2.2,7.3-1.4c-4.5,3.1,12.2-4.9,6.1-1.2c7-3.1,4.9-1.4,5.6-1.4c2.7-1.1-5.8,3.7-0.6,1.2c9.3-4.6,7.6-3.5,7.9-3.5
			c8.4-4.2,9.7-4.8,7.2-3.4c0.9-0.4-6.2,3.3-1.4,0.8c1.8-3.5-5.8,0.5,6.6-6c-5.4,3.5-5.7,4.3,2.8,0.5c7.6-3.3,3-0.2,3.1,0.4
			c2.2-0.5,5-1.3,6.5-1.4c1.6-0.2,2,0.3-0.5,2.2c5.5-1.6,14.3-5,6.2,0.4c-4,3.3-1.6,3.2,6.4,0.1c6.5-2.2,8.9-2.3,9.3-1.4
			c9.1-3.7-0.6,2.4,4.5,0.6c1.1,0.3-3.7,3.7,6.6-0.9c2.8-0.7,2,0.4,6.4-1.2c4.6-1.8,5.8-1.9,6.1-1.5c-2.1,1.6,5.6-2,5.8-1.8
			c3.2,0.1,12.3-2.9,4.3,3c-3.7,3.7,6.2,0.2,5.5,2.1c-4.3,1.3-8.6,3.3-9.9,4.4c-1.4,1.1-5,4.2-3.6,5.4c2.1,1-2.3,6,4.3,5.7
			c3.2,1.5,6.7,3.2,11.5,4.4c4.8,1.2,10.5,2.1,16.7,2.5c0.1,0.7,0.3,1.3,0.5,2c-15.4,0.4-27.6,5.5-27.6,11.5c0,2.1,1.5,4.1,4,5.7
			c2.5,1.7,6.2,3.1,10.5,4c2.1-2.6,4.5-5.8,7-0.2c2.5,2.8,5.1-0.8,7.8,1.7c2.3-11.3,4.7-5.4,6.9-0.4c2.2,1.1,4.3,1,6.3-1
			c0.8,0.1,1.7,7.7,2.6,7.1c0.9-5.5,1.8,0.2,2.7-3.2c1.9,5.6,3.9,9.4,6,3.6c-1.8,0.7-3.7-6.9-5.5-3.3c-1.9-8.1-3.8-2-5.7,1.8
			c-1.9,0.8-3.9,2.2-6-1.1c-2,1.6-4.1-2.6-6.1,0.6c-3.1-2.3-6.2,2.8-9.2,1.6c-3-5.8-5.9,0.5-8.8-0.3c-5.7,0.8-11,2-15.8,3.5
			c-9.6,3-17.2,7.2-21.7,12.1c-2-0.3-4.1-0.5-6.2-0.7s-4.3-0.2-6.6-0.2c-7,0.3-13.6,7.8-19.3,2.5c-5.6,3-10.4,3.6-13.7,6.2
			c-3.3-1.8-5.2-4.2-5.2,8.7c0,5.8,1.9,3.9,5.3,8.7c3.4,5.7,8-1.1,13.8,6.1c5.7,1.5,12.3,2.3,19.3,2.2c9.8-0.1,18.7-1.8,25.5-4.5
			c6.2,2.8,13.8,4.9,22.3,6.3c-24,6-39.4,15.3-39.4,25.7c0,1.2,0.2,2.3,0.6,3.4c-4.3,1.8-19.9,10.1-11,6c-2.6,1.9-2,2.7-7,6.8
			c-1.7,2.5,1.9,2.6-2.4,7.5c0.5,1.3-3,4.9,1,4.6c-2.7,3.3-0.1,3.8,2.8,4.4c4.3-0.2-4.7,6.6,4.4,4.1c-5.1,4.9,4.5,2.2,5.9,3.8
			c6.5-1,3,3.2,10.3,1.9c-1,3,5.5,2.1,5.6,4.5c4,0.4,6.1,1.8,9.4,2.6c3.1,0.9,6.5,1.6,10.9,1.8c-11,5.5-10.4,5.1-7.4,3.6
			c-10.1,5.4-6.2,3.5-6.3,3.9c2.8-2.4,3.9-0.5-5.1,6.2c-10.2,7.3-0.4,3.6-3.8,2.5c-3.1,3.7-7.3,5.6-2.4,8.6c-0.7,7.6,1.8-2.9-1,0.9
			c-4.7,1.2-8.1,1.7-5.4-0.6c-9.7,4.2-14.5,6.1-5.2,1.4c-1.6-2.5-1.6-3.1-5.1-1.3c1.6-0.8-3.7,2.6-4.9,2.4c-2.7,0.9-3.2-0.5-4.7-0.9
			c-1.6-4.3-3,4.9-4.5,1.5c-1.5,0.8-2.9,2.9-4.3-0.5c-1.4-5.3-2.8,0.2-4.1,3.5c-2.6,3.5-5.1,2.3-7.5,2.4c-2.3-1-4.4,3.8-6.4,2.7
			c-3.9-6.9-6.9,2.2-9,6.1c-2,14.3-3.2,1.9-3.2,6.9c0.1,13.3,1.4,15.3,3.8,7.4c2.5,0.6,6.1,2,10.6,6.4c2.2-1.2,4.7-4.5,7.4,2.7
			c2.7-2.2,5.6,3.4,8.7,2.3c1.5,1.4,3.1-7.1,4.7-1.2c1.6-2.3,3.3-0.7,5,0.5c1.7,1,3.5,1.7,5.2,2.2c1.8,0.6,3.6,1,5.4,1.6
			c6.7-0.1,3.9,3.6,5.7,4.1c-2.5,2.8,3.8,0.2,5.8-0.2c-7.3,4.6,1.6,0.4,6-1.4c15-7.3,3.8-1,6.1-1.5c12.7-5.1,0.2,2.9,8.8-0.2
			c8.7-3.2,3,1.1,8.4-0.5c0.5,0.4,2.2,0,2.2,0.6c-1.8,1.5-4,3.2,5.9-1.4c4-1.5-1.8,2-3.9,3.5c15.1-7.4,4.6-1.5,11.5-4.6
			c-2.5,1.7,7.1-2.8,6.5-2.1c4.6-2,4.3-1.5,0.7,0.8c1.6-0.1-5.6,4.3,6.7-1.6c-2.8,2-2.9,2.6,1.1,0.8c6.4-3.2-0.7,0.7,1.9-0.5
			c-1.7,0.9,5.6-2.8,2.4-1c4.5-2.3,4.8-2.4,6.2-3.1c-0.2,0.2-0.7,0.6,2-0.7c-11.1,5.9,8.2-4,6.7-3.1c9.3-4.7,2.5-1.1,5-2.2
			c-1.6,1,0.6-0.1-4.4,2.7c5.8-2.9,5-2.3,2.6-1c1.6-0.7-3.1,1.9-0.9,0.9c1.8-0.7-0.9,1-6,3.9c0.8-0.2,5.1-2.1,7.9-3.3
			c5.4-2.6-4.2,2.7-0.4,1c-8,4.7-2.7,2.4-2.3,2.8c-11.4,6.5-1.4,1.8-3.3,3.3c2-0.6,8.1-3.2,8.5-2.9c-8.5,5.5,10.1-3.2,5.3,0.2
			c-4.8,2.6-7,3.9-6.5,3.8c-3.9,2.2-7.6,4.2-0.7,0.7c-5.1,2.8-4.6,2.7-1.7,1.2c5.4-2.7,3.4-1.5,5.3-2.4c7.9-4-1.2,0.9,1.1-0.2
			c3.9-1.9,9.6-4.8,8.6-4.1c6.1-3.1,2.8-1.2,5-2.3c-7.7,4.1,0.8-0.2-6.2,3.6c1.3-0.4,6-2.6,0.4,0.5c2.4-1.2,12.3-6.4,8.6-4.4
			c3.5-1.8-5.4,2.9-2.6,1.4c8.4-4.3-9,4.8,2.9-1.3c-4.4,2.3-4.8,2.6-5,2.7c5.1-2.6-0.2,0.2,6.3-3.2c-5.1,2.7,3.9-1.9-4.4,2.5
			c9.4-4.4,3.8-1-0.4,1.6c8.5-3.8-0.8,1.8,0.9,1.5c-7.7,4.4,6-2.5,2.1-0.1c7.6-3.6,8.6-3.8,4.8-1.5c-0.6,0.6,2.2-0.5,2.4-0.3
			c-5.4,3-1.5,1.1-4.6,2.9c-1.4,0.9,7.5-3.6,4.6-2c6.7-3.3,4.1-1.9-1.7,1.3c2.6-1.3-7.2,3.9,0.3,0.1c3.8-1.9-10.4,5.6,7.1-3.5
			c4.7-2.4-1.3,0.8-4.5,2.6c-10.6,5.6,4-2-2.2,1.3c2-1-7,3.7,6.7-3.4c-6.4,3.5,1.5-0.5-0.3,0.6c-9.9,5.3,3.8-1.7,2.6-0.9
			c-14.3,7.5,0.4-0.1-1.9,1.2c-9.9,5.2,3.8-1.8,5.9-2.9c-2.5,1.6,5.2-2.2-2.2,2c0.7-0.1-1.7,1.4-3.3,2.5c6.3-3,9.1-4.2,7.8-3.3
			c1.5-0.6,9.7-4.8,2.4-0.9c-7.9,4.3-5.4,3.1-5,3c5.9-2.9,9.5-4.7,3.6-1.5c-8.1,4.3-10.3,5.5-0.5,0.4c-7.4,3.9,4.8-2.4,6.1-3
			c-10.4,5.7-3.5,2.3-5.8,3.8c1-0.4-1.1,0.8-3.2,2c-3.1,1.7-4.1,2.3-0.9,0.7c-4.8,2.6,8.2-4.2,9-4.5c4.9-2.1-10.9,6.6,4.2-0.9
			c-4.4,2.8,2.1-0.3,2.1,0.2c8.3-4.1,0.1,0.3,6.3-2.7c0.1,0.2-3.4,2.2,0.9,0.1c7.3-3.6,8.3-3.9,4.6-1.9c-1.3,0.9-5.6,3.3-4.4,2.9
			c-3.8,2.2-3.6,2.4-4.2,3c5.9-2.8,9.5-4.5,4.5-1.6c-13.5,7.2-4.8,2.7-2.8,1.8c4.3-2.1,8.9-4.4,8-3.8c6.3-3.2,4.9-2.5,5.9-2.9
			c-8.6,4.6,7.9-4,0.8-0.2c2.7-1.3-2.3,1.4-2.6,1.7c0.6-0.1-7.5,4.3,3.7-1.3c-2.1,1.3,2.4-0.9-3.5,2.4c-2,1.2-0.5,0.6,1.9-0.5
			c5.1-2.5,3.3-1.4,6.9-3.1c-8.3,4.5-8,4.6-6.4,3.9c9.9-5-0.3,0.4,7.2-3.4c-5.7,3.2,1.4-0.4,6.8-3.3c-4.2,2.2,0.1-0.2,0.5-0.7
			c2.5-1.5-6.6,3-1.4,0.4c-0.5,0.3,4.9-2.4-1.8,1.3c-6.5,3.5-6.3,3.5,1.2-0.2c3.6-1.7,10.5-5.1,9.3-4.2c-11.4,6-6,3.3-2.2,1.3
			c5.8-3,5.4-2.7,7.7-3.9c3.5-1.8,5.4-2.8,5.8-3c0.4-0.2-0.9,0.5-4,2c4.8-2.5,4.8-2.7,3.5-2.1c1.4-0.8,1.2-0.9-4.5,1.9
			c5.5-3.2,0.7-0.9,5.2-3.5c1.5-1,2.3-1.4,0.2-0.2c-0.4-0.3,5-3.7,4.3-4c1.8-1.6,8.3-5.9,3.2-4.2c-2.4,0.3,0.1-2.2,1.9-4.4
			c-7,2.4,4.8-5.2,0.6-4.6c1.6-3.8-0.9-5.9-2.5-8.7c-1.6-4.5-4,0.6-7.1-8c-1.6-4.3-3.3-4-5.1-3.6c-1.9-5-3.9,1.5-6-3.4
			c-2.1,3.2-4.5-10.3-6.9-3.9c-2.4,4.3-5,8.6-7.7-2c-2.7-5.7-5.5-4.2-8.5-2.5c-1.4,3.7-3-0.9-4.5,1.8c-1.5,1.7-3.1-0.9-4.7-3.9
			c-1.6-9.3-3.2-9.4-4.8-6.4c-1.6-4.4-3.3-0.1-4.9,3.4c-1.7-11.6-3.4-1.7-5.1-3.4c-1.7-6.3-3.4,0.6-5.2,3.5c1.5-0.9,2.8-6.7,4.1,0
			c0.7,7.7,1.2-0.5,1.8-4.5c0.6,1,1.2,6.4,1.6-0.8c1.1,4.5,2,7.5,2.7,0.5c0.8,5.8,1.4-3.1,1.9-6.4c1.8,3.9,3.6,5.6,5.3-1.9
			c1.7-4,3.4,4.2,5.1-0.1c1.7,2.2,3.3-5.4,4.9-1.8c1.6-2.1,3.2-0.9,4.7,0c1.5-5,3-10.7,4.5-2.4c1.5,7.8,2.9,1.3,4.3,0
			c1.4-3.3,2.8,2.8,4-5.2c1.3,2.6,2.6,2.1,3.8,2.5c2.5-3.5,4.7-7.7,6.9-5.5c2.1-0.5,4.1-0.3,5.8-0.7c3.5-3.6,6.2-14.9,8.1-7
			c1.9-2.7,2.8-7.9,2.8-7.6c0,5.2-1-5.4-2.9-7.6c-1.9,1.4-4.7,1.6-8.3-6.9c-1.8-3.2-3.8-0.2-5.9-3.1c-2.2-11.5-4.5-1-7-2.9
			c-2.5-0.5-5.2-4.7-8-4.8c-2.8-0.6-5.8-0.4-8.9-0.1c-3.1,6.2-6.3,6.4-9.7-1.7c-3.3,3.8-6.9-3.1-10.4-1.9c1.3,1.3,2.4-2,3.4-1.7
			c1-3.3,1.8-3.5,2.5-5c1.4-1.9,2.1-6.2,2.1-7.6c-0.1-9.7-0.3,3.4-1-1.1c-0.6,2-1.7-5.6-2.9-9c-1.3-6-2.8-10.1-4.5-6.3
			c-1.7,1.8-3.7-0.5-5.9-1.7c1.7-6.7,3.6,5.8,5.4,0.1c2.3,4.6,4.5,6.4,6.7,3.6c2.1-8.6,4.4,4.4,6.5-4.3c2.2,2.3,4.2-2.8,6.3-0.8
			c2.1-0.3,4.1-0.7,6.2-1c4-0.8,7.9-1.7,11.7-2.9c5.6-1.7,10.9-3.7,15.7-6.1c2.4,0.4,4.7-8.1,6.9-1.5c2.2-3.8,4.2-9.2,6.2-6.4
			c1.9-3.2,3.8,3.2,5.4-4.5c1.7-1.8,3.2-2.4,4.6-4.9c2.7-5.2,4.9-9.5,6.3-10.7C672.1,197.7,672.9,199.6,672.9,193.2z M277.3,174.1
			c-2.4,3.1-5.2-5-8.3-1c-3.1,4.2-6.4-3.3-9.9-0.3c-2.2-1.5-4.4,2.4-6.5,0.2c-2.1,8.9-8.9,2.8-5.9,0.5c2-2.2,3.6-4.4,4.8-6.8
			c1.2-2.4,2-4.8,2.3-7.3c2.5-1,5.1,8.2,8,3.7c2.9,8,5.9,2.8,9.2,3.2c3.2-11.6,6.6-9.4,10.2,2.6C279,178.8,277.7,169.8,277.3,174.1z
			"/>
		<path class="st2" d="M239.2,212.3c0,1.6,1.5,3.1,4,4.4c2.6,1.3,6.2,8.1,10.6,3.1c4.4-2.7,9.4,0.5,14.8,1.1
			c2.7-2.8,5.3-2.1,7.8-0.4c2.5-2.9,4.8,1.8,7-0.9c2.2,6.5,4.2,3.8,5.9-1.4c1.8,7.9,3.3,2.8,4.6-1.8c1-0.5,4-2.8,4-4.5
			c-4.2,3.3-3.7-2.1-4-4.4c-1.8-5.7-2.8-3.4-4.2-2c-1.4-1.3-3.1,5.6-6.4-1.1c-2.2,3.9-4.5,3-7-0.9c-2.5-4.5-5.1,1.4-7.8-0.3
			c-2.7-3.1-5.3-1.8-7.8,0.4c-2.5,13.1-4.8-1.4-7,0.9c-2.2-1.5-4.2,9.8-5.9,1.4c-1.8,0.5-3.3,1.2-4.6,1.8
			C238,210.5,242.8,208.8,239.2,212.3z"/>
	</g>
	<path class="st2" d="M93.7,435.8"/>
	<path class="st2" d="M108.3,399.3L93.7,402l0.7,12c0,0,1,4.8,17.3,8c21.5,4.2,45.5-6,12.7-5.3"/>
</g>
</svg>
